<?xml version="1.0" standalone="no"?>
<!DOCTYPE svg PUBLIC "-//W3C//DTD SVG 1.1//EN" "http://www.w3.org/Graphics/SVG/1.1/DTD/svg11.dtd" >

<svg>
<metadata>
Created by webfont
</metadata>
<defs>

<font id="Noto Sans S Chinese DemiLight" horiz-adv-x="1000" vert-adv-y="1000" >
  <font-face
    
    font-family="Noto Sans S Chinese DemiLight"
    
    font-weight="350"
    
    font-stretch="normal"
    
    units-per-em="1000"
    
    panose-1="0 0 0 0 0 0 0 0 0 0"
    
    ascent="880"
    
    descent="-120"
    
    x-height="540"
    
    cap-height="732"
    
    bbox="-1000 -1048 2928 1808"
    
    underline-thickness="50"
    
    underline-position="-100"
    
    unicode-range="U+0001-2CE93"
    
  />
    <missing-glyph />
    
    <glyph glyph-name="cid14" unicode="&#x2d;" d="M46 311h253v-64h-253v64z"  horiz-adv-x="343"   />

    
    <glyph glyph-name="cid15" unicode="&#x2e;" d="M134 -13q-25 0 -43 17.5t-18 46.5q0 30 18 48t43 18q26 0 44 -18t18 -48q0 -29 -18 -46.5t-44 -17.5z"  horiz-adv-x="270"   />

    
    <glyph glyph-name="cid17" unicode="&#x30;" d="M275 53q32 0 58.5 18.5t45.5 57.5t29.5 98.5t10.5 141.5q0 80 -10.5 138.5t-29.5 96.5t-45.5 56.5t-58.5 18.5q-65 0 -105.5 -75t-40.5 -235q0 -164 40.5 -240t105.5 -76zM275 -13q-104 0 -164.5 95t-60.5 287q0 190 60.5 283t164.5 93q103 0 163 -93t60 -283
q0 -192 -60 -287t-163 -95z"  horiz-adv-x="549"   />

    
    <glyph glyph-name="cid18" unicode="&#x31;" d="M89 68h164v561h-129v53q92 16 148 50h62v-664h149v-68h-394v68z"  horiz-adv-x="549"   />

    
    <glyph glyph-name="cid19" unicode="&#x32;" d="M45 49q175 153 256.5 268.5t81.5 210.5q0 32 -8.5 59.5t-26 48t-43.5 32t-61 11.5q-46 0 -85 -25t-71 -62l-48 46q45 48 94.5 77.5t118.5 29.5q49 0 88 -15t66 -43t41.5 -67.5t14.5 -88.5q0 -56 -21 -112t-59.5 -114t-93 -118t-121.5 -123q29 3 60.5 4.5t59.5 1.5h210
v-70h-453v49z"  horiz-adv-x="549"   />

    
    <glyph glyph-name="cid20" unicode="&#x33;" d="M262 -13q-43 0 -78 8.5t-63.5 22.5t-50.5 32t-40 37l42 53q32 -33 76 -59t109 -26q67 0 110 38t43 104q0 34 -12.5 62t-40 48t-71.5 31t-108 11v64q57 0 96.5 11t64 30.5t35 46t10.5 57.5q0 55 -34 88.5t-94 33.5q-45 0 -84 -21t-70 -53l-45 53q41 37 90 62t112 25
q45 0 83 -12t66 -35.5t43.5 -57.5t15.5 -77q0 -69 -36 -113t-95 -65v-4q32 -8 60.5 -23.5t49.5 -39.5t33.5 -55t12.5 -69q0 -49 -18 -87.5t-49 -65.5t-73 -41t-90 -14z"  horiz-adv-x="549"   />

    
    <glyph glyph-name="cid21" unicode="&#x34;" d="M517 204h-100v-204h-77v204h-321v53l311 475h87v-463h100v-65zM340 269v238q0 27 2 65t4 65h-5q-14 -26 -27.5 -53.5t-30.5 -52.5l-177 -262h234z"  horiz-adv-x="549"   />

    
    <glyph glyph-name="cid22" unicode="&#x35;" d="M259 -13q-43 0 -77.5 8.5t-62.5 22t-50.5 31t-40.5 35.5l41 54q31 -32 74.5 -57.5t108.5 -25.5q33 0 62.5 12.5t51 36t34.5 57t13 74.5q0 81 -42.5 127t-114.5 46q-38 0 -65 -11.5t-59 -32.5l-45 28l23 340h350v-70h-278l-20 -222q26 14 52.5 22.5t61.5 8.5q45 0 85 -14
t70 -42.5t47 -72.5t17 -105q0 -60 -20 -106.5t-53 -78.5t-75.5 -48.5t-87.5 -16.5z"  horiz-adv-x="549"   />

    
    <glyph glyph-name="cid23" unicode="&#x36;" d="M446 621q-23 26 -54 41t-64 15q-39 0 -73.5 -16t-60.5 -53t-42.5 -96.5t-17.5 -147.5q35 42 79.5 65.5t89.5 23.5q94 0 148 -57.5t54 -172.5q0 -53 -16.5 -96t-45 -74.5t-65.5 -48.5t-79 -17q-53 0 -97.5 23t-76.5 68t-50 112.5t-18 157.5q0 108 22 184t59.5 123
t85.5 68.5t101 21.5q55 0 96 -20.5t71 -52.5zM299 52q27 0 50.5 12.5t41 35t27 54t9.5 69.5q0 77 -33 123t-104 46q-35 0 -75.5 -22t-78.5 -75q8 -117 49 -180t114 -63z"  horiz-adv-x="549"   />

    
    <glyph glyph-name="cid24" unicode="&#x37;" d="M200 0q4 106 17 194.5t37.5 167.5t62 152t91.5 148h-359v70h453v-49q-65 -84 -105.5 -161t-63.5 -157t-33.5 -169t-14.5 -196h-85v0z"  horiz-adv-x="549"   />

    
    <glyph glyph-name="cid25" unicode="&#x38;" d="M278 48q33 0 60 9.5t46.5 27t30 41t10.5 51.5q0 38 -16.5 65.5t-44 48t-63.5 37t-76 32.5q-47 -29 -76.5 -73t-29.5 -99q0 -30 12 -55.5t33.5 -44.5t50.5 -29.5t63 -10.5zM327 394q80 68 80 152q0 28 -8.5 52.5t-25 43t-41 29t-55.5 10.5q-52 0 -86 -34t-34 -89
q0 -34 14.5 -59t38 -44t54 -33.5t63.5 -27.5zM277 -13q-50 0 -92.5 14.5t-73.5 40.5t-48.5 62t-17.5 78q0 37 12 68.5t31 57t43.5 45t49.5 33.5v4q-40 27 -69.5 68.5t-29.5 99.5q0 41 15 75t41.5 58.5t62.5 38t78 13.5q46 0 83 -14.5t63 -40t39.5 -61t13.5 -77.5
q0 -29 -9.5 -55.5t-24 -49.5t-32 -41.5t-33.5 -31.5v-5q24 -14 46.5 -31.5t39.5 -41t27.5 -53t10.5 -66.5q0 -39 -16.5 -73.5t-46 -60t-71 -40t-92.5 -14.5z"  horiz-adv-x="549"   />

    
    <glyph glyph-name="cid26" unicode="&#x39;" d="M104 111q24 -26 56 -41t69 -15q36 0 69 16.5t58.5 53.5t41.5 97.5t19 149.5q-35 -42 -79.5 -67.5t-92.5 -25.5q-92 0 -146 58t-54 172q0 52 16.5 95.5t44.5 75t65.5 48.5t79.5 17q53 0 97.5 -21.5t77 -65t50.5 -108t18 -150.5q0 -113 -22 -191.5t-58.5 -127.5t-84 -71.5
t-98.5 -22.5q-58 0 -100 20.5t-72 52.5zM258 340q38 0 79 23.5t79 77.5q-6 115 -48 177.5t-117 62.5q-27 0 -50.5 -12.5t-41 -35t-27 -54.5t-9.5 -70q0 -76 33 -122.5t102 -46.5z"  horiz-adv-x="549"   />

    
    <glyph glyph-name="uni4E00" unicode="&#x4E00;" d="M953 425v-72h-905v72h905z"     />

    
    <glyph glyph-name="cid9832" unicode="&#x4E01;" d="M934 674h-368v-637q0 -42 -13.5 -62t-42.5 -28q-32 -9 -87.5 -11t-143.5 -2q-4 16 -13 37.5t-18 36.5q36 -1 69.5 -1.5t61.5 -1t49 0t31 0.5q18 1 25.5 7.5t7.5 23.5v637h-428v68h870v-68z"     />

    
    <glyph glyph-name="cid9835" unicode="&#x4E03;" d="M765 26q25 0 40 7.5t24 27.5t13.5 54.5t7.5 88.5q14 -10 34 -18.5t34 -12.5q-5 -60 -12.5 -100.5t-24 -65.5t-44 -36t-72.5 -11h-268q-45 0 -74.5 6.5t-47.5 22.5t-25.5 43.5t-7.5 69.5v313l-277 -44l-12 65l289 47v336h71v-325l526 86l10 -67l-536 -86v-327
q0 -22 3.5 -36.5t12.5 -22.5t26 -11.5t44 -3.5h266z"     />

    
    <glyph glyph-name="cid9840" unicode="&#x4E07;" d="M410 694q-2 -51 -4.5 -104t-8.5 -107h445v-13q0 -5 -0.5 -11t-0.5 -9q-7 -122 -13.5 -207t-15 -142t-19.5 -89t-26 -48q-16 -17 -35 -24t-47 -9q-27 -2 -75 -1t-100 5q-1 14 -7 32.5t-16 32.5q57 -6 105.5 -7t68.5 -1q18 0 28.5 2t18.5 10q12 10 21 37.5t16.5 77
t13.5 123.5t12 177h-382q-11 -74 -31.5 -145.5t-56 -136t-87.5 -119.5t-127 -96q-8 13 -21.5 27t-26.5 23q70 37 119 87t82 108.5t52.5 124t29.5 133.5t13.5 136t5.5 133h-275v65h869v-65h-525z"     />

    
    <glyph glyph-name="cid9842" unicode="&#x4E09;" d="M928 67v-67h-860v67h860zM798 413v-67h-610v67h610zM876 738v-67h-750v67h750z"     />

    
    <glyph glyph-name="cid9843" unicode="&#x4E0A;" d="M943 38v-66h-887v66h376v781h70v-310h378v-67h-378v-404h441z"     />

    
    <glyph glyph-name="cid9848" unicode="&#x4E0E;" d="M881 411q-10 -107 -20.5 -183.5t-23 -128.5t-27 -83t-31.5 -47q-18 -18 -38 -24.5t-51 -8.5q-13 -1 -32.5 -1t-42.5 1t-49 2t-52 3q-2 15 -8 33.5t-17 32.5q29 -3 57.5 -4.5t52.5 -2t42.5 -1t29.5 -0.5q19 0 31 2t21 10q14 12 26 38t22.5 70.5t20.5 109t19 152.5h-588
l-55 1q12 41 25 94.5t25.5 111.5t24.5 116t21 109l66 -7q-5 -26 -10 -54t-11 -57h562v-64h-576q-11 -50 -21 -97.5t-21 -89.5h631zM681 170h-619v64h619v-64z"     />

    
    <glyph glyph-name="cid9857" unicode="&#x4E13;" d="M385 468q-10 -31 -20 -60.5t-19 -55.5h438l12 5l50 -31l-59.5 -59.5t-67.5 -66.5t-71.5 -69.5t-70.5 -68.5q49 -21 91.5 -41.5t74.5 -39.5l-40 -57q-36 22 -88.5 48t-112 51t-122 48t-119.5 40l38 49q50 -14 104 -32.5t108 -39.5q53 50 108 103.5t100 98.5h-468
q15 38 31.5 83t33.5 95h-256v64h277q11 31 21 62t20 63h-238v63h257q10 30 17.5 58.5t15.5 55.5h70q-8 -28 -17 -56.5t-17 -57.5h386v-63h-406q-10 -32 -19.5 -63t-20.5 -62h517v-64h-538z"     />

    
    <glyph glyph-name="cid9862" unicode="&#x4E16;" d="M461 202v318h-189v-464h646v-64h-716v528h-147v64h147v224h70v-224h189v247h66v-247h199v236h69v-236h152v-64h-152v-318h-334zM527 520v-256h199v256h-199z"     />

    
    <glyph glyph-name="cid9866" unicode="&#x4E18;" d="M947 44v-66h-893v66h160v677q74 4 154.5 11t157.5 17.5t145 24t116 30.5l40 -58q-50 -17 -115 -30.5t-137 -23.5t-147.5 -17t-146.5 -11v-191h617v-65h-172v-364h221zM281 44h378v364h-378v-364z"     />

    
    <glyph glyph-name="cid9868" unicode="&#x4E1A;" d="M938 43v-66h-873v66h282v780h67v-780h174v779h67v-779h283zM226 239q-9 32 -24 74.5t-34 89t-39.5 93.5t-40.5 89l61 19q20 -41 41.5 -87t41 -91.5t35.5 -87.5t26 -75zM916 572q-18 -42 -39.5 -88t-44 -91t-46 -87t-44.5 -76l-54 30q21 34 44 76t45.5 87.5t43 91
t35.5 86.5z"     />

    
    <glyph glyph-name="cid9870" unicode="&#x4E1C;" d="M720 264q30 -29 61 -62t60 -66.5t53 -65t40 -57.5l-58 -34q-15 26 -39 58.5t-52 67t-58.5 68t-60.5 62.5zM578 344v-324q0 -32 -8.5 -49t-29.5 -25q-23 -9 -60 -11t-91 -2q-2 15 -9.5 34.5t-15.5 34.5q45 -1 80 -1.5t47 0.5t16 5t4 15v323h-223q-89 0 -106 -14
q-3 11 -10 33t-15 36q17 5 34 25.5t40 53.5q12 17 39.5 60.5t58.5 100.5h-247v64h279q17 33 33 68t30 70l68 -31q-11 -26 -24 -53.5t-27 -53.5h470v-64h-503q-34 -63 -70.5 -121t-72.5 -109h246v150h67v-150h292v-65h-292zM329 244q-18 -39 -41 -77.5t-48.5 -74t-52.5 -67.5
t-54 -57q-10 8 -26.5 22t-29.5 22q56 46 105.5 112.5t81.5 137.5z"     />

    
    <glyph glyph-name="cid9893" unicode="&#x4E2D;" d="M897 657v-463h-68v58h-297v-326h-69v326h-296v-63h-66v468h362v179h69v-179h365zM463 318v274h-296v-274h296zM829 318v274h-297v-274h297z"     />

    
    <glyph glyph-name="cid9898" unicode="&#x4E30;" d="M945 166h-410v-240h-70v240h-408v67h408v170h-321v63h321v157h-371v66h371v147h70v-147h370v-66h-370v-157h325v-63h-325v-170h410v-67z"     />

    
    <glyph glyph-name="cid9904" unicode="&#x4E34;" d="M948 717v-64h-418q-26 -59 -56.5 -110t-65.5 -91q-10 8 -28 19.5t-30 17.5q60 63 105 155.5t72 195.5l65 -13q-8 -28 -17 -56t-19 -54h392zM750 418q-14 15 -33.5 34.5t-42.5 40t-47 41.5t-46 39l44 39q22 -18 46.5 -37.5t47.5 -39t43 -38t34 -32.5zM427 378h493v-449
h-68v50h-361v-54h-64v453zM852 314h-148v-273h148v273zM491 314v-273h151v273h-151zM256 822h65v-891h-65v891zM92 713h62v-654h-62v654z"     />

    
    <glyph glyph-name="cid9912" unicode="&#x4E39;" d="M940 335h-133v-317q0 -37 -11 -55.5t-36 -26.5q-26 -8 -73.5 -10t-124.5 -1q-3 13 -11 32.5t-16 32.5q30 -1 58.5 -1.5t52 -0.5t40.5 0.5t25 0.5q16 1 22.5 7t6.5 22v317h-477q-5 -53 -15.5 -108.5t-31 -109.5t-52.5 -103.5t-79 -91.5q-6 11 -21 26.5t-26 22.5
q43 38 71.5 81.5t47 90.5t27.5 95.5t13 96.5h-140v64h143q1 12 1 24v23v335h606v-382h133v-64zM740 399v319h-473v-273v-22.5t-1 -23.5h474zM422 664q26 -20 55 -43.5t56 -47.5t50.5 -47.5t39.5 -42.5l-52 -43q-15 19 -38 43t-49.5 48.5t-55 49t-55.5 45.5z"     />

    
    <glyph glyph-name="cid9917" unicode="&#x4E3D;" d="M943 773v-64h-886v64h886zM740 194q-8 19 -19.5 43.5t-25 50.5t-28 52.5t-27.5 49.5l50 20q14 -23 29 -48.5t28.5 -51t25.5 -49.5t20 -43zM896 7q0 -28 -7 -43.5t-26 -23.5q-18 -8 -48.5 -10t-79.5 -2q-2 14 -7.5 31.5t-11.5 31.5q34 -2 61 -1.5t35 0.5q18 1 18 17v532
h-224v-614h-63v676h353v-594zM299 200q-7 20 -18 45t-23.5 51.5t-26.5 53.5t-27 51l52 19q13 -23 27.5 -49.5t27.5 -52.5t24.5 -50.5t19.5 -43.5zM451 9q0 -28 -7 -43t-25 -23t-46.5 -10.5t-74.5 -1.5q-2 13 -8 31t-12 32q32 -1 57.5 -1h33.5q16 0 16 16v530h-209v-614h-63
v676h338v-592z"     />

    
    <glyph glyph-name="cid9936" unicode="&#x4E49;" d="M860 740q-54 -152 -128.5 -282.5t-181.5 -238.5q88 -79 189 -138.5t218 -96.5q-12 -11 -25 -28t-21 -31q-119 40 -221 102t-190 144q-85 -77 -188.5 -138t-234.5 -107q-5 13 -15.5 29t-20.5 27q127 43 228.5 101.5t184.5 133.5q-97 102 -172.5 225t-130.5 263l60 18
q51 -130 123.5 -246t168.5 -213q103 103 172.5 228.5t117.5 269.5zM517 575q-7 25 -18 55t-24.5 62t-28 64t-27.5 60l57 23q14 -28 29 -59.5t28.5 -63t24.5 -61.5t19 -54z"     />

    
    <glyph glyph-name="cid9939" unicode="&#x4E4B;" d="M860 606q-46 -68 -109.5 -140t-136 -140t-151.5 -129t-156 -108q8 -5 16 -11t16 -11q48 -31 109.5 -39t146.5 -8q45 0 93.5 1.5t96 3.5t92 5.5t80.5 6.5q-5 -13 -11.5 -35t-7.5 -36q-28 -2 -72 -4t-93 -3.5t-96.5 -2.5t-83.5 -1q-91 0 -155 11t-114 43q-30 19 -53 38.5
t-40 19.5q-12 0 -26.5 -10t-31 -27t-34.5 -39t-36 -47l-50 60q50 54 95.5 89.5t83.5 35.5q5 0 15 -2q69 40 139.5 92.5t136.5 111.5t124 120.5t100 119.5h-642v65h691l14 4zM525 642q-8 16 -20 37t-26 43.5t-29 44.5t-30 42l58 30q15 -20 31 -42t30 -43.5t26 -41.5t20 -36z
"     />

    
    <glyph glyph-name="cid9940" unicode="&#x4E4C;" d="M915 342q0 -95 -5.5 -161.5t-14 -111t-19.5 -70t-22 -38.5q-15 -17 -31 -22.5t-41 -7.5q-22 -2 -61.5 -1t-83.5 3q-2 15 -8 32.5t-14 30.5q47 -4 87 -5t57 -1q14 0 23 2t17 9q9 8 15.5 29t12.5 58t11 92t10 132h-652v421h194q13 26 26 55.5t20 52.5l70 -12
q-13 -25 -25.5 -50t-25.5 -46h363q-1 -6 -1 -12q0 -5 -0.5 -10.5t-0.5 -8.5q-5 -54 -9.5 -92.5t-10.5 -65t-13 -42.5t-15 -25q-13 -13 -28.5 -17.5t-36.5 -5.5q-20 -1 -54.5 -0.5t-72.5 3.5q-1 13 -5.5 29t-10.5 28q39 -4 72.5 -5t45.5 -1q25 0 35 9q10 11 18 46t15 109
h-485v-299h654v-31zM758 134h-697v60h697v-60z"     />

    
    <glyph glyph-name="cid9945" unicode="&#x4E50;" d="M750 276q27 -29 57 -63t57.5 -67.5t51.5 -65.5t40 -57l-60 -32q-15 25 -38.5 57.5t-50.5 67t-56 69.5t-57 65zM553 368v-355q0 -33 -9 -50t-31 -25q-23 -9 -62.5 -11t-104.5 -2q-3 14 -9.5 33.5t-14.5 33.5q49 -2 88 -1.5t52 0.5q13 1 18.5 5.5t5.5 16.5v355h-239
q-102 0 -116 -13q-3 11 -10 31t-13 33q10 3 17 20t14 43q3 12 9 40.5t12 66t10.5 81.5t4.5 87q85 2 177 7t179.5 13t165 19.5t133.5 26.5l40 -58q-59 -15 -134 -26.5t-158 -19.5t-169.5 -13t-167.5 -7q-6 -69 -19 -137.5t-27 -126.5h291v205h67v-205h368v-67h-368zM305 256
q-21 -36 -46.5 -72.5t-52.5 -71.5t-55 -66.5t-54 -57.5q-9 8 -26 21.5t-28 21.5q26 24 53.5 53t53.5 61t49.5 65.5t42.5 66.5z"     />

    
    <glyph glyph-name="cid9968" unicode="&#x4E5D;" d="M854 13q11 0 18 6.5t11 24.5t6 50.5t4 84.5q12 -10 30 -18t32 -12q-3 -57 -8 -95.5t-15.5 -62t-28 -33t-45.5 -9.5h-116q-29 0 -47.5 5t-29.5 17t-15.5 32.5t-4.5 51.5v488h-230q-8 -92 -26 -181.5t-53.5 -169.5t-92.5 -148.5t-142 -119.5q-8 11 -23.5 26t-29.5 25
q82 46 136 108t87.5 135.5t50 156t22.5 168.5h-265v65h269q3 57 3.5 113t0.5 111h72q-1 -55 -1.5 -111t-3.5 -113h295v-553q0 -27 6.5 -34.5t29.5 -7.5h104z"     />

    
    <glyph glyph-name="cid9973" unicode="&#x4E61;" d="M883 430q-50 -113 -124.5 -196t-172 -142.5t-216.5 -98.5t-257 -65q-5 14 -16 34.5t-20 33.5q106 16 199.5 40.5t174 60.5t147 84t117.5 111q-119 -10 -205 -17t-145.5 -12t-97 -9t-60 -7t-34.5 -6t-20 -6q-2 11 -8.5 32.5t-13.5 35.5q26 3 62 19.5t84 42.5q16 8 41 22.5
t57.5 34.5t70 44t78.5 52q-105 -8 -168 -13t-98 -9t-49.5 -7t-23.5 -6q-3 11 -9.5 32.5t-12.5 36.5q18 2 38.5 14.5t48.5 32.5q14 10 43 32.5t64.5 53.5t74 68.5t72.5 76.5l62 -39q-63 -66 -131.5 -125t-137.5 -107l313 22q33 24 65 50t62 52l60 -44q-115 -96 -233 -174.5
t-236 -140.5l433 31q14 23 26.5 48t23.5 51z"     />

    
    <glyph glyph-name="cid10034" unicode="&#x4E8B;" d="M950 209h-103v-177h-67v45h-249v-74q0 -34 -10 -48.5t-32 -22.5q-23 -8 -63 -9.5t-103 -1.5q-2 13 -9.5 29t-14.5 28q48 -2 87.5 -1.5t52.5 1.5q14 1 19.5 6t5.5 19v74h-327v52h327v80h-412v54h412v75h-318v51h318v74h-289v172h289v62h-394v56h394v82h67v-82h401v-56
h-401v-62h301v-172h-301v-74h316v-126h103v-54zM531 587v-76h233v76h-233zM464 511v76h-225v-76h225zM531 263h249v75h-249v-75zM780 209h-249v-80h249v80z"     />

    
    <glyph glyph-name="uni4E8C" unicode="&#x4E8C;" d="M941 100v-73h-881v73h881zM857 692v-71h-713v71h713z"     />

    
    <glyph glyph-name="cid10043" unicode="&#x4E91;" d="M467 404q-52 -98 -111.5 -189.5t-121.5 -166.5l521 41q-32 49 -66 98t-66 92l60 31q32 -42 65.5 -89t65 -94t58.5 -90.5t45 -78.5l-61 -37q-12 23 -27.5 50t-34.5 58q-139 -12 -239 -21t-169 -15.5t-111.5 -11t-68.5 -8t-39 -6.5t-22 -7q-3 12 -10.5 35t-15.5 39
q17 4 34.5 24t41.5 50q11 14 31.5 43.5t45.5 69t52.5 86.5t51.5 97h-316v68h881v-68h-474zM838 686h-670v67h670v-67z"     />

    
    <glyph glyph-name="cid10048" unicode="&#x4E94;" d="M943 46v-66h-883v66h246q15 70 31 157t31 180h-189v65h200q9 58 17.5 115t15.5 109h-288v66h746v-66h-387q-8 -53 -16.5 -109.5t-17.5 -114.5h264l11 3l50 -5q-2 -41 -6 -90.5t-9 -102t-10.5 -105.5t-11.5 -102h206zM438 383q-15 -94 -30.5 -181t-29.5 -156h291
q4 41 9 85.5t9 88.5t7.5 86t6.5 77h-263z"     />

    
    <glyph glyph-name="cid10049" unicode="&#x4E95;" d="M937 250h-222v-326h-69v326h-299q-8 -48 -23.5 -94t-41.5 -88.5t-63 -81t-89 -72.5q-8 11 -25 25.5t-30 22.5q47 30 81 63t58 69.5t39 75.5t23 80h-211v67h221q3 31 4 62.5t1 63.5v117h-194v67h194v204h69v-204h286v205h69v-205h199v-67h-199v-243h222v-67zM646 317v243
h-286v-118q0 -32 -1 -63t-4 -62h291z"     />

    
    <glyph glyph-name="cid10055" unicode="&#x4E9A;" d="M684 234q20 32 42 72.5t43 84t39.5 87t32.5 81.5l63 -23q-17 -41 -37 -84.5t-41 -86t-42.5 -82t-40.5 -71.5zM146 560q20 -39 41 -83.5t40 -88.5t34.5 -84t25.5 -71l-62 -25q-9 31 -24.5 72t-34 85t-39 89.5t-39.5 85.5zM950 49v-64h-900v64h288v660h-263v65h853v-65
h-281v-660h303zM408 49h169v660h-169v-660z"     />

    
    <glyph glyph-name="cid10076" unicode="&#x4EA4;" d="M721 409q-31 -78 -72.5 -141.5t-95.5 -114.5q154 -120 401 -161q-11 -11 -22.5 -29t-18.5 -32q-126 24 -227.5 68t-182.5 110q-83 -66 -186 -111t-227 -77q-3 6 -7.5 14.5t-10 17t-11.5 16.5t-11 13q123 26 224 67t181 104q-104 101 -165 250l60 19q53 -134 154 -227
q49 48 86.5 105t63.5 128zM387 571q-25 -32 -56.5 -64t-65.5 -62t-69.5 -57t-68.5 -48q-8 10 -24 25.5t-27 24.5q33 19 67.5 42.5t67 50.5t61.5 55.5t52 57.5zM673 596q34 -23 71.5 -51t72 -57t64.5 -57t50 -52l-55 -43q-19 24 -48 52.5t-63 58.5t-71 58.5t-72 52.5z
M928 631h-857v65h419q-10 26 -29 61.5t-39 64.5l61 22q11 -15 22 -32t21 -34t18 -33t13 -29l-50 -20h421v-65z"     />

    
    <glyph glyph-name="cid10081" unicode="&#x4EA7;" d="M924 396h-727v-73q0 -44 -4 -96.5t-15.5 -106.5t-31.5 -106.5t-52 -96.5q-4 5 -11 12t-14.5 13.5t-15 12t-13.5 8.5q29 41 46.5 88t27 94.5t12.5 94t3 85.5v136h479q11 18 22.5 39.5t22.5 44.5t21 45t17 41l70 -23q-20 -37 -42.5 -76t-44.5 -71h250v-65zM353 468
q-6 15 -15.5 33t-20.5 37.5t-24 38.5t-25 36l56 23q13 -16 26.5 -35t25.5 -37.5t22 -36.5t16 -33zM898 648h-785v64h382q-12 24 -29 53t-36 52l64 18q23 -27 44.5 -60.5t31.5 -59.5l-8 -3h336v-64z"     />

    
    <glyph glyph-name="cid10089" unicode="&#x4EAC;" d="M934 709v-65h-865v65h413q-14 27 -31 57t-34 56l63 20q20 -30 42.5 -67.5t36.5 -65.5h375zM741 205q25 -24 52 -52.5t52.5 -57t48 -55t37.5 -47.5l-57 -40q-14 21 -35.5 48.5t-46.5 57t-52.5 58.5t-52.5 55zM537 270v-266q0 -32 -8.5 -47.5t-33.5 -23.5t-68 -9.5
t-110 -0.5q-3 14 -9 31.5t-14 31.5q53 -2 95.5 -2t56.5 1q14 0 18 4.5t4 15.5v265h-276v287h626v-287h-281zM258 329h491v169h-491v-169zM306 181q-19 -29 -42.5 -59.5t-50 -59.5t-53.5 -56t-54 -49q-10 9 -24.5 21.5t-24.5 20.5q25 20 51.5 45t51 52t45.5 54.5t36 53.5z
"     />

    
    <glyph glyph-name="cid10103" unicode="&#x4EB3;" d="M818 -10q18 0 29.5 3t18 12t10 26t5.5 44q12 -7 28 -12t30 -7q-3 -36 -9.5 -59t-19.5 -36t-33.5 -18t-52.5 -5h-253q-43 0 -71 3.5t-44.5 13.5t-23.5 27t-7 44v69l-351 -21l-5 52l356 21v76q-58 -6 -115.5 -11t-112.5 -8q-2 11 -6 24t-9 23q72 5 148.5 11.5t149 15.5
t136.5 19.5t109 23.5l45 -44q-57 -14 -128.5 -26t-150.5 -21v-81l406 24l5 -51l-411 -24v-72q0 -11 3 -18t12 -11t25 -5.5t41 -1.5h246zM810 628v-172h-609v172h609zM741 582h-474v-81h474v81zM855 230v115h-710v-118h-61v171h835v-168h-64zM932 685h-861v57h406
q-13 19 -27.5 40t-29.5 38l62 23q21 -23 42 -51t34 -50h374v-57z"     />

    
    <glyph glyph-name="uni4EBA" unicode="&#x4EBA;" d="M538 832q-1 -26 -2 -62.5t-5 -81.5q4 -29 12.5 -81t27 -117t48.5 -136.5t76.5 -139.5t111.5 -127.5t153 -98.5q-14 -11 -27 -26.5t-21 -29.5q-96 45 -165.5 113t-118 145.5t-78.5 157.5t-48 151q-17 -77 -46 -157t-76.5 -155.5t-116 -142t-162.5 -115.5q-8 13 -23 26.5
t-29 24.5q104 52 175 125t117 155t71 167.5t36.5 163t13.5 140.5t3 101h73z"     />

    
    <glyph glyph-name="cid10122" unicode="&#x4EC0;" d="M951 424h-273v-500h-68v500h-283v65h283v337h68v-337h273v-65zM361 813q-21 -54 -46.5 -106t-54.5 -102v-679h-65v577q-28 -40 -56.5 -76t-59.5 -67q-3 6 -7.5 14.5t-9.5 17.5t-11 17.5t-10 14.5q38 37 75 83.5t70 99t61.5 109.5t50.5 116z"     />

    
    <glyph glyph-name="cid10123" unicode="&#x4EC1;" d="M947 69v-70h-618v70h618zM366 813q-23 -57 -50 -113t-59 -110v-664h-66v562q-26 -35 -53.5 -68t-55.5 -62q-3 6 -7.5 14.5t-10.5 18t-12 18t-11 14.5q39 37 76 83.5t70.5 99.5t62.5 111t51 117zM902 596h-515v69h515v-69z"     />

    
    <glyph glyph-name="cid10151" unicode="&#x4ED1;" d="M565 810q-11 -18 -23 -31q36 -45 84.5 -89t104.5 -83t115.5 -71t116.5 -52q-13 -11 -27.5 -28.5t-22.5 -30.5q-54 22 -110 55.5t-109 73.5t-101 85.5t-87 92.5q-83 -99 -191.5 -179.5t-222.5 -131.5q-8 14 -21 30t-26 27q66 27 132.5 65t127 84t112 99.5t88.5 110.5z
M695 23q25 0 41 5.5t25 22t13.5 45t7.5 75.5q12 -9 30.5 -16.5t32.5 -9.5q-4 -55 -12 -90.5t-24 -56.5t-43 -29.5t-70 -8.5h-283q-46 0 -77 5t-49.5 18t-26 35.5t-7.5 57.5v407h66v-207q55 17 110 37t105.5 41.5t93.5 45t75 47.5l60 -50q-42 -28 -94 -54t-109.5 -49
t-119 -43.5t-121.5 -37.5v-137q0 -16 3.5 -26.5t13.5 -16.5t28.5 -8t47.5 -2h283z"     />

    
    <glyph glyph-name="cid10162" unicode="&#x4ED9;" d="M915 608v-682h-67v63h-484v616h66v-554h172v769h67v-769h179v557h67zM334 815q-21 -56 -45.5 -110.5t-53.5 -106.5v-673h-63v569q-23 -35 -47.5 -66.5t-49.5 -58.5q-3 6 -7.5 14.5t-9.5 17.5t-11 17.5t-10 14.5q35 37 68.5 82.5t63.5 97.5t56.5 108t46.5 113z"     />

    
    <glyph glyph-name="cid10175" unicode="&#x4EE3;" d="M644 469q13 -102 33 -186t46.5 -145t60.5 -96.5t76 -38.5q40 -3 57 175q10 -10 27 -19.5t28 -14.5q-8 -63 -19 -105.5t-24.5 -68t-30.5 -36t-36 -9.5q-62 4 -108.5 44.5t-80 110.5t-56 167t-37.5 215l-248 -32l-10 63l250 31q-13 137 -21 297h67q2 -77 7 -149.5
t12 -139.5l303 37l10 -61zM382 805q-23 -54 -50.5 -105.5t-59.5 -99.5v-673h-67v578q-33 -44 -68.5 -82.5t-71.5 -70.5q-3 6 -7.5 14t-10 17t-11.5 17.5t-10 14.5q43 37 85 83t80 98.5t71 110.5t58 118zM879 615q-13 17 -32 38t-41 43t-46 44t-47 40l48 31q23 -18 47 -38.5
t46.5 -41.5t42 -41.5t33.5 -37.5z"     />

    
    <glyph glyph-name="cid10180" unicode="&#x4EE5;" d="M833 793q-11 -179 -35 -318.5t-74 -245.5q33 -31 67 -65.5t65.5 -69t58.5 -66.5t45 -59l-57 -43q-16 24 -39 54t-50.5 62t-58 65t-61.5 63q-50 -81 -122 -142.5t-177 -109.5q-6 11 -21.5 28.5t-27.5 28.5q121 48 198 119.5t123 171.5t66.5 231.5t29.5 299.5zM475 266
q2 -14 7.5 -32.5t9.5 -29.5q-108 -51 -172.5 -82t-100 -49.5t-50.5 -28t-24 -17.5q-5 11 -16.5 28.5t-20.5 26.5q7 4 17 12t19 19t15 25t6 31v587h71v-600zM528 476q-10 24 -26.5 54t-36.5 61.5t-42.5 63.5t-43.5 59l55 29q22 -27 45 -57.5t43.5 -61t37.5 -60t28 -53.5z"     />

    
    <glyph glyph-name="cid10195" unicode="&#x4EF0;" d="M919 175q0 -28 -7 -44.5t-26 -24.5q-20 -8 -53 -10t-85 -2q-2 14 -8.5 32t-13.5 32q40 -2 70.5 -1t40.5 1q11 1 14.5 4t3.5 14v492h-174v-743h-64v803h302v-553zM611 764q-44 -20 -97.5 -38.5t-107.5 -32.5v-516l163 56q1 -13 3.5 -29t4.5 -26q-72 -28 -116 -45.5
t-68.5 -28t-35.5 -17t-17 -11.5q-5 11 -15 26.5t-18 23.5q11 8 24.5 26t13.5 51v526q29 9 59.5 19t59.5 21t54.5 22t44.5 22zM307 818q-16 -51 -36 -101.5t-43 -100.5v-692h-64v571q-22 -38 -45.5 -72t-47.5 -63q-3 5 -7.5 14t-9.5 18.5t-10.5 18t-9.5 14.5q66 77 121 185
t92 226z"     />

    
    <glyph glyph-name="cid10199" unicode="&#x4EF2;" d="M932 629v-437h-66v58h-205v-324h-66v324h-201v-64h-63v443h264v196h66v-196h271zM595 312v255h-201v-255h201zM866 312v255h-205v-255h205zM331 816q-20 -56 -44.5 -111t-52.5 -107v-672h-64v566q-44 -69 -93 -122q-3 6 -8 14t-10.5 17t-11 17.5t-9.5 14.5q35 37 68 83
t63 97.5t55 108t45 113.5z"     />

    
    <glyph glyph-name="cid10205" unicode="&#x4EF6;" d="M947 272h-274v-348h-66v348h-289v64h289v229h-164q-32 -92 -74 -156q-10 7 -27 17.5t-30 16.5q45 63 75.5 153.5t47.5 189.5l63 -12q-7 -38 -15.5 -74t-19.5 -71h144v194h66v-194h231v-64h-231v-229h274v-64zM337 813q-21 -56 -46 -111t-54 -107v-669h-63v566
q-23 -35 -48 -66.5t-50 -59.5q-5 12 -17 32.5t-21 32.5q35 36 69 82t64.5 97.5t56.5 108t46 113.5z"     />

    
    <glyph glyph-name="cid10235" unicode="&#x4F0A;" d="M954 469h-75v-290h-64v54h-226q-10 -44 -28.5 -87t-49 -83t-75 -75.5t-105.5 -65.5q-7 11 -20 26.5t-24 24.5q55 24 95 54t68 63.5t45 69.5t27 73h-177v62h189q4 32 5 62.5t1 59.5v52h-251v62h251v172h-180v63h519v-235h75v-62zM606 531h209v172h-209v-172zM815 469h-209
v-52q0 -29 -1 -59.5t-6 -62.5h216v174zM344 813q-21 -54 -47.5 -105.5t-55.5 -101.5v-681h-64v583q-28 -39 -56.5 -73.5t-59.5 -64.5q-5 12 -16.5 32.5t-21.5 32.5q38 36 75 81t70.5 96t62.5 107t51 113z"     />

    
    <glyph glyph-name="cid10253" unicode="&#x4F17;" d="M709 467q-4 -34 -8.5 -65.5t-10.5 -62.5q14 -47 36 -97t53.5 -96.5t72.5 -87t94 -67.5q-11 -10 -24.5 -27.5t-21.5 -30.5q-43 25 -79 59.5t-65 74t-51.5 81.5t-38.5 84q-29 -100 -75.5 -175.5t-116.5 -132.5q-4 4 -11 9.5t-15.5 11.5t-16 11.5t-13.5 9.5q53 39 92 90
t65.5 114.5t42.5 139.5t24 164zM466 89q-13 16 -31 35.5t-39 40.5t-44 43t-47 42q-30 -102 -77.5 -181t-116.5 -138q-9 8 -27 21t-30 21q52 39 90.5 91t66 115.5t45 138.5t27.5 161l67 -6q-5 -43 -12.5 -82.5t-15.5 -76.5q27 -21 54.5 -44.5t53 -46.5t47 -45.5t36.5 -40.5z
M561 814q-12 -26 -27 -48q33 -47 79 -91t101 -81.5t116.5 -66.5t125.5 -46q-11 -11 -24.5 -28t-21.5 -31q-60 19 -118 48.5t-110.5 67.5t-98.5 83t-82 95q-72 -102 -174.5 -177.5t-228.5 -122.5q-8 14 -20.5 31.5t-26.5 29.5q74 24 141.5 60t125 82t103.5 101.5t76 119.5z
"     />

    
    <glyph glyph-name="cid10260" unicode="&#x4F1A;" d="M569 807l-14 -20t-15 -20q34 -36 80 -74t100.5 -73.5t114.5 -66t122 -52.5q-11 -10 -25 -27t-22 -31q-59 24 -117 57t-111 70t-98.5 76t-80.5 76q-49 -56 -108.5 -104.5t-128.5 -92.5h474v-62h-477v60q-39 -25 -80.5 -48t-86.5 -43q-8 12 -22 29t-26 28q73 31 141.5 70
t127.5 83.5t107 92.5t81 99zM92 334h822v-64h-441q-49 -65 -102 -126.5t-108 -112.5l471 37q-29 33 -60 65.5t-61 61.5l56 29q33 -30 67 -64t64 -69t55 -68.5t42 -61.5l-59 -35q-10 19 -25 39.5t-32 43.5q-134 -11 -229.5 -19t-161.5 -14t-107 -10t-65.5 -7t-37 -6t-21.5 -6
q-2 5 -4.5 14t-5.5 18.5t-6.5 19.5t-6.5 17q16 3 33.5 16.5t41.5 36.5q10 9 29 28.5t42.5 46.5t50 59t51.5 67h-292v64z"     />

    
    <glyph glyph-name="cid10266" unicode="&#x4F1F;" d="M939 337q-1 -6 -1 -11t-0.5 -9.5t-0.5 -8.5q-5 -68 -9.5 -115.5t-9.5 -80t-11.5 -51t-14.5 -27.5q-11 -12 -22.5 -17t-28.5 -7q-14 -2 -36.5 -2t-48.5 2q-1 14 -5 30t-11 29q25 -2 45.5 -3t29.5 -1q18 0 26 10q10 10 18 55t15 144h-229v-348h-64v348h-276v63h276v122
h-221v62h221v118h-246v62h246v134h64v-134h269v-62h-269v-118h241v-62h-241v-122h294zM343 814q-22 -58 -48 -114.5t-55 -110.5v-665h-63v563q-23 -35 -46.5 -65t-47.5 -56q-5 12 -17 32.5t-21 32.5q35 37 69 82.5t64 97.5t56 108t46 113z"     />

    
    <glyph glyph-name="cid10267" unicode="&#x4F20;" d="M545 467q-10 -34 -20 -65t-19 -60h327l10 5l47 -30q-23 -26 -49.5 -56.5t-55 -63t-58.5 -65.5t-58 -64q34 -26 63 -50t49 -44l-50 -50q-20 22 -50 48.5t-64.5 54t-71.5 54t-72 48.5l48 39q23 -14 48 -30t50 -33q40 43 81 89t75 86h-359q14 38 29 86t32 101h-184v62h203
q9 32 18 63.5t18 63.5h-182v61h198q16 60 30 114l65 -9q-7 -25 -13.5 -51.5t-14.5 -53.5h289v-61h-306q-8 -32 -17 -63.5t-19 -63.5h387v-62h-404zM335 813q-23 -56 -49 -111t-56 -107v-669h-64v570q-25 -37 -52 -69t-54 -61l-7.5 15t-9.5 18t-11 17.5t-10 14.5
q37 36 72.5 81.5t68 97.5t60.5 108t49 114z"     />

    
    <glyph glyph-name="cid10273" unicode="&#x4F26;" d="M678 828q-6 -12 -12.5 -24t-13.5 -25q28 -43 65.5 -86.5t79.5 -83.5t86.5 -73.5t86.5 -56.5q-12 -8 -25.5 -23t-21.5 -28q-39 24 -80 57t-80.5 71.5t-76.5 81t-68 86.5q-54 -83 -131.5 -163t-181.5 -144q-6 11 -19.5 26t-24.5 23q65 38 119.5 84t98 95.5t75.5 99.5t53 96
zM775 3q20 0 32.5 5t19.5 20t10.5 42t5.5 70q12 -8 29.5 -15t31.5 -10q-4 -51 -10.5 -84t-20 -52.5t-36.5 -27.5t-59 -8h-225q-40 0 -66 5t-41.5 17t-22 33t-6.5 53v419h66v-216q39 17 80.5 38t82 42.5t77.5 44t67 42.5l43 -55q-38 -23 -81.5 -47.5t-89.5 -47.5t-92 -44
t-87 -38v-138q0 -15 2.5 -24t10.5 -14.5t22.5 -7.5t37.5 -2h219zM330 815q-43 -115 -100 -220v-669h-64v563q-22 -33 -45.5 -63.5t-47.5 -56.5q-3 6 -8 14.5t-10.5 17.5t-11 17.5t-9.5 13.5q35 37 68.5 83t63.5 97.5t56 108t46 113.5z"     />

    
    <glyph glyph-name="cid10340" unicode="&#x4F53;" d="M692 566q23 -64 53.5 -126t66 -117.5t75 -102t80.5 -78.5q-11 -9 -26 -24t-25 -29q-40 36 -78.5 85t-73 107t-64.5 123t-53 131v-362h166v-60h-166v-184h-64v184h-170v60h170v358q-24 -67 -55 -131.5t-66 -122t-74 -106t-79 -84.5q-9 11 -23 26t-25 24q41 33 81 80
t76.5 103t67.5 119t54 127h-243v64h286v203h64v-203h303v-64h-258zM320 814q-19 -55 -42 -109.5t-49 -106.5v-672h-63v563q-21 -35 -44 -65.5t-46 -57.5q-5 12 -17 32.5t-22 32.5q33 37 65 82.5t60.5 97.5t52.5 108t43 113z"     />

    
    <glyph glyph-name="cid10342" unicode="&#x4F55;" d="M958 673h-75v-653q0 -38 -11 -56t-37 -26q-27 -8 -76 -10.5t-124 -1.5q-2 15 -9.5 34t-15.5 35q31 -1 60 -1.5t52.5 -0.5t41 0.5t26.5 0.5q15 1 21 6t6 20v653h-478v64h619v-64zM434 186v-71h-63v411h308v-340h-245zM434 467v-222h183v222h-183zM334 815
q-19 -52 -42 -103t-49 -101v-686h-66v575q-46 -70 -97 -127q-2 6 -6.5 14.5t-10 17.5t-11.5 17.5t-10 14.5q34 36 67 81.5t62.5 96.5t55 106.5t45.5 112.5z"     />

    
    <glyph glyph-name="cid10350" unicode="&#x4F59;" d="M556 816q-5 -5 -9 -10.5t-9 -10.5q87 -99 196 -167t238 -121q-13 -10 -25 -26t-20 -30q-126 57 -231.5 127.5t-195.5 171.5q-44 -47 -94.5 -91.5t-105.5 -84.5t-112 -74t-112 -61q-9 12 -21 27.5t-25 26.5q66 28 133 67t129 84.5t116.5 96.5t95.5 104zM703 209
q29 -22 60 -48.5t60.5 -54t54.5 -53.5t42 -47l-57 -41q-16 22 -40.5 49t-53.5 55t-60 55.5t-60 51.5zM539 273v-266q0 -32 -9 -47.5t-31 -23.5q-23 -8 -61 -10t-98 -2q-3 14 -11 32t-16 32q48 -2 85.5 -2t49.5 1q13 1 17.5 5t4.5 15v266h-374v63h374v133h-229v61h518v-61
h-220v-133h373v-63h-373zM341 184q-23 -31 -50 -61.5t-57 -59.5t-61 -54.5t-60 -46.5q-8 9 -24 23t-28 22q60 38 118.5 90.5t99.5 108.5z"     />

    
    <glyph glyph-name="cid10353" unicode="&#x4F5B;" d="M941 295q-1 -6 -1 -10v-17q-2 -58 -4.5 -99t-6 -68.5t-8 -43.5t-11.5 -24q-9 -11 -20 -15.5t-28 -6.5q-14 -2 -38.5 -2t-51.5 2q-1 13 -4.5 29t-10.5 28q26 -3 47 -3.5t30 -0.5t15.5 1.5t10.5 6.5q4 4 6.5 15t5 30.5t4 48.5t3.5 70h-151v-311h-59v311h-132
q-7 -48 -21.5 -92t-40 -84t-63.5 -74.5t-93 -63.5l-20 22.5t-23 21.5q49 26 83.5 56.5t58 65t37 71.5t20.5 77h-188q6 25 12.5 57t12.5 66t11.5 68t9.5 65h153v138h-172v58h172v136h60v-136h123v136h59v-136h183v-255h-183v-138h213zM728 630v-138h123v138h-123zM546 492
h123v138h-123v-138zM483 295q3 40 3 84v54h-103q-5 -35 -11 -70.5t-13 -67.5h124zM669 295v138h-123v-54q0 -44 -3 -84h126zM334 813q-22 -55 -48 -109.5t-56 -105.5v-672h-64v573q-26 -37 -53 -70.5t-54 -62.5q-5 12 -17 33t-22 32q37 36 73 81.5t68.5 97.5t60.5 108
t49 114z"     />

    
    <glyph glyph-name="cid10354" unicode="&#x4F5C;" d="M643 604v-150h292v-62h-292v-158h305v-63h-305v-246h-67v679h-74q-32 -61 -69 -114.5t-75 -96.5q-8 8 -24 22.5t-28 22.5q34 35 66 79t60.5 93.5t52.5 103t42 108.5l64 -16q-13 -35 -27.5 -69.5t-29.5 -68.5h423v-64h-314zM356 812q-44 -110 -103 -215v-671h-67v568
q-25 -36 -52 -68t-54 -60q-3 6 -7.5 14.5t-10 18t-11 18t-10.5 14.5q37 36 73 81.5t68.5 97.5t60.5 108t49 114z"     />

    
    <glyph glyph-name="cid10389" unicode="&#x4F73;" d="M956 27v-65h-661v65h302v175h-240v63h240v120h66v-120h244v-63h-244v-175h293zM337 814q-20 -57 -45 -112t-53 -108v-670h-65v561q-43 -65 -89 -118q-3 6 -7.5 14.5t-10 17.5t-11.5 17.5t-10 14.5q34 36 67 82t62.5 97.5t54.5 108t44 113.5zM597 639h-220v62h220v135h66
v-135h227v-62h-227v-150h272v-63h-606v63h268v150z"     />

    
    <glyph glyph-name="cid10460" unicode="&#x4F9D;" d="M948 438q-48 -43 -106 -88.5t-109 -80.5q46 -86 104 -153.5t129 -108.5q-11 -10 -25 -25.5t-23 -28.5q-62 39 -113.5 96.5t-93.5 129.5t-75 156t-57 176q-48 -66 -101 -121v-365l182 66q2 -14 5 -30.5t6 -27.5q-82 -31 -131.5 -50t-77.5 -30.5t-40.5 -18t-20.5 -11.5v-1
q-5 11 -15.5 26.5t-18.5 23.5q13 9 29.5 28.5t16.5 53.5v272q-31 -29 -62.5 -53.5t-63.5 -46.5q-8 11 -22 27.5t-25 25.5q89 55 171 134t140 171h-253v63h642v-63h-313l-5 -7q17 -69 38 -133.5t49 -125.5q24 18 50 39t51 43t48 43.5t41 40.5zM336 816q-44 -119 -106 -230
v-663h-64v561q-21 -32 -44 -60.5t-46 -54.5q-3 6 -7.5 14.5t-10 17.5t-11 17.5t-9.5 14.5q35 37 69 83t64 97.5t56 108t46 113.5zM619 652q-5 15 -12.5 35t-17 41t-20.5 42.5t-21 40.5l58 19q23 -37 44 -80t32 -75z"     />

    
    <glyph glyph-name="cid10474" unicode="&#x4FA8;" d="M733 510q21 -30 47.5 -58.5t57 -53.5t63 -45.5t64.5 -33.5q-11 -9 -23.5 -23.5t-20.5 -26.5q-36 18 -72 44t-69.5 57.5t-62 67t-49.5 72.5h-105q-46 -84 -112 -144t-156 -104q-5 11 -18 27t-23 26q153 67 235 195h-195v60h229q15 32 27.5 67t21.5 74q-51 -5 -101.5 -9
t-97.5 -6q-2 13 -7.5 28.5t-10.5 27.5q61 4 127.5 9.5t130.5 13.5t120.5 17.5t98.5 21.5l39 -56q-48 -13 -107 -22.5t-125 -17.5q-8 -41 -20 -77.5t-27 -70.5h339v-60h-198zM710 332h65v-406h-65v406zM453 333h64v-60q0 -40 -7.5 -86t-26.5 -93t-52 -92t-84 -83
q-6 10 -22 23.5t-27 19.5q49 35 79 75t47 81.5t23 81.5t6 75v58zM331 813q-22 -57 -48 -111t-55 -106v-671h-62v573q-26 -37 -52.5 -70t-54.5 -62q-2 6 -6.5 15t-10 18t-11 17.5t-9.5 14.5q37 36 72.5 81.5t67.5 97t59.5 107.5t48.5 114z"     />

    
    <glyph glyph-name="cid10524" unicode="&#x4FC4;" d="M917 398q-28 -69 -64.5 -130.5t-80.5 -116.5q20 -78 44.5 -121t56.5 -43q16 0 25 39.5t12 129.5q10 -11 24.5 -20t25.5 -14q-4 -57 -10 -95t-17 -61.5t-27.5 -33t-40.5 -9.5q-49 0 -83.5 44.5t-58.5 124.5q-35 -38 -72 -70.5t-76 -61.5q-7 10 -20.5 25t-24.5 23
q48 31 92 70t83 84q-14 64 -23 140t-15 164h-168v-160q35 9 69.5 18.5t69.5 19.5l7 -60q-36 -11 -73 -21.5t-73 -20.5v-233q0 -32 -8 -47t-28 -23t-54 -10t-85 -2q-2 13 -8 31t-14 32q40 -2 71.5 -2t42.5 1t15.5 5t4.5 15v215q-44 -12 -83 -23t-74 -20l-19 64
q36 8 80.5 19.5t95.5 25.5v176h-168v59h168v167q-38 -10 -75 -18.5t-73 -16.5q-2 11 -8 26t-13 26q43 10 88 21.5t87.5 24.5t80 26.5t65.5 27.5l50 -50q-30 -13 -65.5 -26t-73.5 -24v-184h166q-4 71 -5.5 146.5t-2.5 154.5h65q-2 -163 6 -301h211v-59h-209q5 -68 11.5 -127
t14.5 -111q61 87 102 186zM300 812q-16 -51 -35.5 -100t-42.5 -97v-691h-64v572q-23 -41 -48.5 -76t-51.5 -67q-2 6 -6.5 14.5t-9.5 18t-10.5 18.5t-9.5 15q33 38 64 85t59 100t52 110t43 116zM885 587q-8 19 -19.5 42.5t-26 49t-30.5 51t-32 48.5l51 21q16 -22 32 -46.5
t30.5 -49.5t26.5 -48t20 -41z"     />

    
    <glyph glyph-name="cid10562" unicode="&#x4FDD;" d="M708 285q24 -41 55 -80t66 -73.5t72.5 -63t74.5 -48.5q-11 -9 -25 -24.5t-22 -28.5q-35 22 -71 53t-70 67.5t-65 77t-56 83.5v-324h-67v322q-27 -43 -59 -83.5t-68 -76.5t-74 -66t-76 -51q-8 12 -21.5 27.5t-24.5 24.5q39 19 78.5 47.5t76 63t69 73.5t58.5 80h-255v61
h296v130h-221v312h515v-312h-227v-130h283v-61h-242zM443 536h384v192h-384v-192zM344 813q-22 -54 -48 -106t-55 -102v-678h-64v579q-27 -38 -55.5 -72t-57.5 -64q-5 12 -17 32.5t-21 32.5q38 36 74.5 81t69.5 96t61.5 107t50.5 113z"     />

    
    <glyph glyph-name="cid10572" unicode="&#x4FE1;" d="M943 669v-57h-632v57h632zM863 472h-479v55h479v-55zM384 388h479v-56h-479v56zM370 243h503v-316h-60v37h-384v-40h-59v319zM429 187v-167h384v167h-384zM321 814q-17 -52 -39 -102.5t-47 -99.5v-691h-62v582q-23 -38 -48 -71t-50 -63q-3 6 -7.5 14t-9.5 17t-11 17
t-10 14q34 37 66.5 82.5t61 97.5t53 108t43.5 113zM612 679q-11 27 -30.5 64.5t-39.5 68.5l57 23q22 -31 42 -67t31 -63z"     />

    
    <glyph glyph-name="cid10804" unicode="&#x5065;" d="M493 462q-19 -210 -75 -341q36 -39 79 -64t91 -38.5t99.5 -19t105.5 -5.5h164q-7 -11 -13 -28t-8 -29h-147q-58 0 -112.5 5.5t-104.5 19.5t-95 39.5t-84 64.5q-25 -47 -55.5 -81.5t-65.5 -60.5q-7 11 -20.5 23.5t-22.5 19.5q37 26 68.5 62.5t55.5 84.5q-26 37 -48.5 83
t-39.5 103l48 21q13 -45 29 -82t36 -67q20 50 32.5 110.5t20.5 132.5h-152q14 28 29.5 63t31.5 72.5t31 76.5t29 76h-114v58h198q-14 -35 -28.5 -72.5t-30 -75.5t-31 -75t-29.5 -69h82l11 1zM283 818q-14 -51 -32.5 -101t-38.5 -98v-692h-60v572q-38 -69 -78 -119
q-2 6 -6 14.5t-9 18t-10.5 18.5t-9.5 15q60 72 107 173.5t78 213.5zM669 564h-181v52h181v82h-134v52h134v85h58v-85h154v-134h72v-52h-72v-136h-154v-78h175v-55h-175v-85h209v-55h-209v-125h-58v125h-179v55h179v85h-153v55h153v78h-134v52h134v84zM827 564h-100v-84h100
v84zM727 616h100v82h-100v-82z"     />

    
    <glyph glyph-name="uni513F" unicode="&#x513F;" d="M329 793v-321q0 -76 -7.5 -151t-33 -145.5t-74.5 -134t-131 -117.5q-8 11 -22.5 27t-26.5 24q77 49 122.5 107.5t69 122t30.5 131.5t7 136v321h66zM700 794v-742q0 -34 7 -43t32 -9h109q13 0 21.5 9t13.5 33t7 64.5t4 103.5q14 -11 31.5 -19.5t31.5 -11.5
q-3 -68 -8 -114.5t-16.5 -75t-30.5 -41t-50 -12.5h-120q-29 0 -48 5.5t-30 18.5t-16 35.5t-5 57.5v741h67z"     />

    
    <glyph glyph-name="cid11211" unicode="&#x5143;" d="M838 5q16 0 25.5 6.5t15 26t8 55.5t4.5 94q12 -10 30 -17.5t32 -12.5q-3 -63 -9 -104.5t-18 -66t-32 -34t-51 -9.5h-148q-32 0 -53 4.5t-33.5 16.5t-17.5 32t-5 50v365h-194q-7 -81 -22 -154t-47.5 -134.5t-87 -111.5t-139.5 -84q-6 11 -18.5 27t-23.5 24q80 30 130 75
t78.5 100.5t40.5 120.5t18 137h-258v65h875v-65h-284v-365q0 -25 9 -33t39 -8h136zM855 692h-705v64h705v-64z"     />

    
    <glyph glyph-name="cid11214" unicode="&#x5145;" d="M837 13q15 0 24.5 5.5t15 22.5t8 48t4.5 82q11 -10 30 -18t33 -12q-3 -57 -9 -94t-18 -59t-32 -30.5t-51 -8.5h-155q-33 0 -54.5 5t-34 16.5t-18 30.5t-5.5 48v294l-155 -9q-8 -78 -24.5 -142t-51.5 -115t-93.5 -89.5t-148.5 -64.5q-5 13 -17.5 30t-23.5 28
q83 22 135.5 54t84 75.5t46.5 98t21 121.5q-54 -3 -88.5 -6t-55.5 -5t-32.5 -4t-19.5 -5q-2 5 -4.5 13.5t-5.5 18.5t-6.5 19.5t-6.5 16.5q14 2 31.5 15t37.5 33q9 9 26.5 27t39 42.5t45 53.5t46.5 61h-286v64h863v-64h-488q-46 -61 -96 -117.5t-99 -103.5l489 24
q-33 32 -69 63.5t-70 58.5l53 33q35 -27 72 -59t72 -64.5t65 -63.5t50 -57l-57 -38q-24 30 -59 68l-150 -8v-296q0 -23 9 -30t41 -7h142zM511 677q-6 14 -15 31.5t-20 36.5t-23 37.5t-24 35.5l65 20q12 -16 24 -34.5t23 -36.5t21 -35t16 -31z"     />

    
    <glyph glyph-name="cid11219" unicode="&#x5148;" d="M841 4q14 0 23 5.5t14 21.5t7.5 46t4.5 79q11 -9 29 -16.5t32 -11.5q-3 -56 -9 -92.5t-17.5 -57.5t-30 -29t-47.5 -8h-146q-32 0 -52.5 4.5t-32.5 15.5t-16.5 30t-4.5 48v302h-198q-8 -74 -24 -138.5t-49.5 -117.5t-88.5 -95t-140 -71q-7 13 -19.5 29.5t-23.5 25.5
q80 25 131 61.5t81.5 83t44.5 102.5t21 120h-265v64h402v207h-212q-38 -88 -90 -154q-11 7 -28 16.5t-29 14.5q26 31 48.5 70.5t40.5 82.5t32 86t23 82l68 -13q-8 -29 -18 -59.5t-21 -61.5h186v159h67v-159h333v-64h-333v-207h402v-64h-274v-303q0 -22 8.5 -28t37.5 -6h133z
"     />

    
    <glyph glyph-name="cid11221" unicode="&#x5149;" d="M839 8q11 0 18 3t11.5 12t6.5 25t3 43q11 -8 29.5 -14.5t32.5 -10.5q-3 -36 -9 -59.5t-16.5 -37.5t-28 -19.5t-42.5 -5.5h-159q-33 0 -54 4.5t-33.5 15.5t-17.5 30t-5 48v360h-158q-6 -87 -21.5 -161t-49.5 -134t-93 -106.5t-152 -79.5q-6 13 -18.5 30t-23.5 27
q88 27 142 68t84.5 94t43.5 119t19 143h-278v64h394v370h69v-370h392v-64h-282v-359q0 -23 8 -29t40 -6h148zM289 527q-11 21 -27 47t-35.5 54.5t-41 57t-41.5 53.5l53 29q21 -24 42.5 -52t41.5 -55.5t37 -53t28 -46.5zM867 739q-17 -27 -36.5 -56t-40 -57t-40.5 -53.5
t-38 -45.5l-56 25q18 21 38 47.5t39.5 55t36.5 57.5t30 54z"     />

    
    <glyph glyph-name="cid11224" unicode="&#x514B;" d="M840 -3q16 0 25.5 5t15 21t8 45.5t4.5 77.5q11 -9 29.5 -16.5t32.5 -11.5q-3 -56 -9 -91.5t-18 -56t-32 -28.5t-51 -8h-163q-33 0 -55 4.5t-35 15.5t-18 29.5t-5 47.5v234h-155q-9 -65 -27.5 -119t-55 -96.5t-95.5 -74.5t-148 -53q-5 14 -17 32t-22 29q82 17 136 43
t86.5 61t48.5 79.5t23 98.5h-159v290h280v117h-392v61h392v103h67v-103h400v-61h-400v-117h290v-290h-185v-234q0 -22 9.5 -28t42.5 -6h152zM248 325h506v170h-506v-170z"     />

    
    <glyph glyph-name="cid11276" unicode="&#x5168;" d="M554 819q-5 -7 -9 -13.5t-9 -12.5q94 -111 203.5 -192t232.5 -148q-13 -11 -26 -26.5t-21 -29.5q-119 71 -224.5 153.5t-200.5 193.5q-41 -53 -90 -101.5t-103 -92.5t-112.5 -81.5t-117.5 -67.5q-8 13 -20.5 28t-25.5 26q68 31 134.5 74t127.5 93.5t112.5 107t89.5 116.5
zM534 14h392v-61h-848v61h387v171h-262v60h262v162h-267v60h608v-60h-272v-162h274v-60h-274v-171z"     />

    
    <glyph glyph-name="uni516B" unicode="&#x516B;" d="M653 760q1 -19 5 -69.5t15 -120.5t32 -151.5t56 -162.5t85.5 -154.5t122.5 -126.5q-17 -10 -32 -21.5t-25 -23.5q-73 55 -124.5 132t-87.5 161.5t-57 170.5t-33 159.5t-16.5 127.5t-5.5 75l65 4v0zM383 731q-10 -110 -27.5 -223t-50.5 -219t-86 -198.5t-135 -160.5
q-8 11 -22 25.5t-25 23.5q78 64 128 152t80 188t44.5 207.5t22.5 210.5z"     />

    
    <glyph glyph-name="cid11286" unicode="&#x516C;" d="M659 812q25 -52 61 -106.5t76 -105.5t82.5 -95t81.5 -74q-14 -11 -29.5 -27t-26.5 -30q-39 35 -81.5 82.5t-83.5 102.5t-78.5 113.5t-65.5 114.5zM675 303q33 -39 68 -84t67.5 -89.5t60 -86.5t45.5 -75l-64 -35q-13 23 -30.5 52t-37.5 59q-133 -9 -228 -15t-161 -10.5
t-107 -8t-65 -6.5t-36.5 -5.5t-20.5 -5.5q-3 11 -11 33t-15 36q19 5 39.5 28t49.5 57q15 17 43 55.5t62 91t70.5 114t66.5 123.5l70 -32q-63 -114 -134.5 -223.5t-146.5 -197.5l482 27q-31 45 -64 88.5t-64 81.5zM400 786q-51 -123 -125 -230t-157 -181q-11 9 -29.5 24
t-32.5 23q43 33 82.5 76t75 92.5t65 103.5t52.5 111z"     />

    
    <glyph glyph-name="cid11289" unicode="&#x516D;" d="M478 830q13 -25 27 -53t27 -55.5t24 -53t19 -44.5l-71 -29q-7 20 -17.5 46t-23 54.5t-26 57.5t-25.5 55zM672 388q35 -49 74 -105t76.5 -111.5t70 -107t55.5 -90.5l-68 -37q-21 39 -52.5 91t-68 109t-75 114.5t-74.5 107.5zM385 357q-27 -58 -60 -117t-68 -114.5
t-71.5 -105.5t-71.5 -90q-6 4 -14 10.5t-17 13t-18 12.5t-16 10q36 38 72.5 85.5t70.5 100t65 108t56 110.5zM941 569v-68h-879v68h879z"     />

    
    <glyph glyph-name="cid11294" unicode="&#x5170;" d="M938 43v-66h-879v66h879zM153 270v65h679v-65h-679zM901 543h-801v65h483q18 24 37 52.5t37 58.5t34 60t28 56l68 -22q-29 -51 -64.5 -106t-67.5 -99h246v-65zM332 626q-8 18 -20.5 40.5t-28.5 46t-33.5 47t-34.5 44.5l54 27q18 -20 36 -43t34.5 -46t29.5 -44.5t21 -39.5
z"     />

    
    <glyph glyph-name="cid11295" unicode="&#x5171;" d="M953 314v-65h-901v65h233v243h-192v64h192v205h68v-205h294v205h68v-205h201v-64h-201v-243h238zM353 314h294v243h-294v-243zM647 188q35 -25 74.5 -54t77.5 -59t72 -58t58 -51l-62 -41q-23 22 -55.5 51t-70 59.5t-76.5 61.5t-75 57zM403 161q-27 -33 -60.5 -66
t-71 -63.5t-77 -58t-77.5 -49.5q-9 11 -24.5 24.5t-26.5 22.5q37 20 75.5 45.5t74.5 54t66.5 58t51.5 58.5z"     />

    
    <glyph glyph-name="cid11298" unicode="&#x5173;" d="M558 304q56 -115 156.5 -195.5t239.5 -115.5q-12 -11 -25.5 -29.5t-21.5 -32.5q-134 41 -232.5 123t-161.5 201q-16 -44 -45 -88t-78 -86t-119.5 -81.5t-168.5 -74.5q-6 11 -20 29t-27 29q102 35 172 74t115.5 80t70.5 83.5t37 83.5h-377v66h390q3 34 3 65v121h-334v65
h470q15 22 30.5 49t30 55t27.5 55t23 51l71 -25q-24 -46 -53 -94.5t-58 -90.5h204v-65h-337v-122q0 -31 -3 -64h394v-66h-373zM330 625q-6 18 -17 39.5t-24 44.5t-28 45t-30 42l54 29q16 -19 31.5 -41t29.5 -44.5t25 -44t18 -38.5z"     />

    
    <glyph glyph-name="cid11299" unicode="&#x5174;" d="M923 764q-24 -48 -52.5 -100.5t-58.5 -103.5t-60.5 -98t-58.5 -85l-60 27q28 37 58.5 85t60 100t55.5 104t46 97zM422 816q20 -36 38.5 -76t34 -79.5t27 -77t17.5 -68.5l-65 -25q-6 31 -17.5 69t-26.5 78.5t-33 81t-37 76.5zM124 743q24 -33 47.5 -71t44.5 -76.5
t37.5 -74.5t26.5 -66l-63 -30q-10 30 -26 67t-36.5 76t-43.5 77.5t-47 72.5zM380 207q-26 -38 -59 -77t-69.5 -75.5t-76 -69.5t-78.5 -60q-8 11 -22.5 27t-25.5 26q37 24 74.5 54t72 64t64 69t49.5 68zM669 233q34 -30 72.5 -65t75.5 -70.5t69 -69t54 -60.5l-60 -41
q-21 27 -52 61t-67 70.5t-74 73t-73 67.5zM940 354v-64h-883v64h883z"     />

    
    <glyph glyph-name="cid11301" unicode="&#x5175;" d="M949 261v-64h-895v64h173v510q74 4 154 10t157 13.5t145.5 16.5t120.5 20l36 -60q-53 -11 -118.5 -19.5t-137 -16t-146 -12.5t-144.5 -8v-149h599v-63h-182v-242h238zM294 261h349v242h-349v-242zM639 164q36 -20 77 -44t80 -48.5t73.5 -48.5t59.5 -44l-51 -50
q-23 19 -57.5 44t-73.5 50.5t-79.5 51t-77.5 46.5zM411 125q-31 -27 -68 -54.5t-77 -53.5t-80.5 -49.5t-78.5 -42.5q-8 9 -22 23.5t-25 24.5q38 18 78.5 41t79 48t72.5 51.5t58 50.5z"     />

    
    <glyph glyph-name="cid11312" unicode="&#x517D;" d="M946 317v-54h-890v54h890zM172 196h659v-268h-65v49h-531v-53h-63v272zM235 140v-111h531v111h-531zM858 384h-722v321h203q-10 23 -28.5 52.5t-37.5 54.5l54 25q10 -13 21 -27.5t20.5 -29.5t17.5 -29t13 -26l-38 -20h234q22 28 46 64t39 65l61 -23q-18 -27 -38.5 -55
t-40.5 -51h196v-321zM198 569h270v87h-270v-87zM198 433h270v89h-270v-89zM793 522h-262v-89h262v89zM793 656h-262v-87h262v87z"     />

    
    <glyph glyph-name="cid11317" unicode="&#x5180;" d="M952 118v-48h-901v48h246v70h-203v47h203v52h63v-52h279v53h65v-53h203v-47h-203v-70h248zM360 118h279v70h-279v-70zM622 65q45 -9 89.5 -20.5t86.5 -24t79.5 -25.5t66.5 -25l-24 -48q-29 13 -65 27t-77.5 26.5t-86 24.5t-89.5 23zM419 28q-37 -15 -79.5 -30t-86 -28.5
t-86.5 -25.5t-80 -21q-4 10 -10.5 23.5t-12.5 23.5q36 8 78 20t84 25t80 27t66 27zM67 640q56 4 130 12.5t155 18.5v52h-267v49h267v63h63v-255h-63v45q-76 -11 -148 -20t-130 -17zM168 556h671v-253h-671v253zM775 408h-243v-60h243v60zM775 511h-243v-60h243v60zM230 451
h239v60h-239v-60zM230 348h239v60h-239v-60zM668 592q-34 0 -56.5 3.5t-35.5 12t-18 23.5t-5 38v166h63v-90q35 7 70.5 15t69 16.5t62.5 18t51 18.5l44 -38q-29 -12 -65 -23t-75 -20.5t-79 -17.5t-78 -14v-31q0 -17 10 -22t46 -5h173q13 0 21.5 2.5t14 11t7.5 24t4 41.5
q11 -7 26 -12.5t28 -7.5q-3 -33 -8.5 -54t-16 -33t-27.5 -17t-43 -5h-183z"     />

    
    <glyph glyph-name="cid11323" unicode="&#x5185;" d="M899 16q0 -35 -9.5 -53t-34.5 -26q-26 -8 -71.5 -10t-112.5 -2q-2 15 -8.5 34.5t-14.5 33.5q54 -2 99.5 -2t60.5 1t20 6t5 18v583h-300q-2 -32 -6 -65.5t-13 -68.5q38 -33 79 -71t80 -76t72.5 -73.5t57.5 -63.5l-54 -42q-20 25 -49 57t-62.5 67t-70 70.5t-72.5 68.5
q-29 -73 -86.5 -143.5t-161.5 -130.5q-8 11 -21.5 25.5t-25.5 23.5q84 46 135.5 99t80 108t38.5 110t12 105h-297v-677h-66v742h364v172h67v-172h365v-648z"     />

    
    <glyph glyph-name="cid11327" unicode="&#x5188;" d="M901 19q0 -35 -11 -52.5t-34 -25.5q-25 -9 -67.5 -10.5t-113.5 -0.5q-2 14 -10 32.5t-16 32.5q26 -1 51 -1.5t46 -0.5t36.5 0.5t22.5 0.5q14 1 20.5 6t6.5 19v698h-663v-793h-68v858h800v-763zM697 86q-31 45 -75.5 98.5t-98.5 112.5q-57 -73 -118 -135.5t-126 -113.5
q-10 8 -27 21t-31 20q71 51 135.5 115t121.5 139q-56 58 -115.5 114t-117.5 104l47 38q57 -45 114 -98t111 -107q87 123 151 263l64 -20q-36 -77 -79 -149t-91 -139q57 -60 105 -115t80 -101z"     />

    
    <glyph glyph-name="cid11354" unicode="&#x519C;" d="M868 422q-23 -21 -49.5 -43t-54.5 -43.5t-55.5 -41.5t-52.5 -36q57 -88 132 -153.5t172 -105.5q-12 -10 -26 -26t-22 -30q-86 39 -155 97.5t-123.5 134t-95.5 166t-70 194.5q-58 -102 -142 -178v-332l236 68q1 -13 3 -31t4 -28q-100 -32 -160 -51t-93.5 -30.5
t-47.5 -17.5t-22 -12q-4 12 -13 31t-17 30q13 5 28.5 19.5t15.5 43.5v257q-78 -55 -173 -95q-8 11 -22.5 27.5t-26.5 26.5q153 56 253 149.5t159 233.5h-285v-139h-65v201h374q11 30 19 62t16 66l66 -12q-8 -31 -15.5 -60t-17.5 -56h362v-201h-68v139h-315l-12 -27
q20 -86 49.5 -164t67.5 -147q24 17 50 36.5t50.5 40.5t47.5 41.5t41 38.5z"     />

    
    <glyph glyph-name="cid11386" unicode="&#x51B0;" d="M934 600q-23 -27 -48.5 -55.5t-52.5 -56.5t-54 -53.5t-52 -46.5q44 -98 103.5 -172.5t139.5 -118.5q-11 -10 -25 -26t-22 -30q-101 64 -169 176t-112 256v-456q0 -34 -9 -51t-30 -26q-21 -10 -57 -12.5t-92 -2.5q-2 15 -10.5 35.5t-16.5 34.5q45 -2 79.5 -2t46.5 1t17 5
t5 17v818h67v-176q12 -56 27 -109t34 -104q23 21 47 45t47.5 49t44 49.5t37.5 46.5zM539 566q-28 -187 -97.5 -321.5t-163.5 -207.5q-7 12 -19.5 28t-23.5 26q39 27 74.5 69.5t65.5 96.5t53.5 118t37.5 135h-184v65h206l12 2zM269 351q-18 -38 -39 -78.5t-42.5 -80.5
t-43.5 -78t-42 -70l-57 41q18 28 40 64.5t45.5 77t46 83t42.5 82.5zM220 580q-14 15 -34.5 32.5t-44 35.5t-48.5 35.5t-48 32.5l39 47q23 -14 48.5 -30.5t49.5 -34t44.5 -34.5t34.5 -31z"     />

    
    <glyph glyph-name="cid11397" unicode="&#x51B6;" d="M727 703q32 -33 64 -71t61.5 -76t53.5 -74t40 -66l-58 -35q-8 15 -18.5 32.5t-22.5 35.5q-110 -7 -189.5 -12.5t-134.5 -9.5t-89.5 -6.5t-55 -5t-31 -5t-17.5 -5.5q-2 11 -9.5 30.5t-13.5 33.5q16 3 32 20.5t38 45.5q10 13 32 43.5t48 71.5t53 89t49 97l69 -20
q-48 -91 -102 -176t-110 -154l391 22q-31 44 -66 87t-70 80zM368 321h495v-395h-67v41h-363v-45h-65v399zM433 259v-230h363v230h-363zM44 10q20 30 43.5 68.5t48 81.5t49 88.5t46.5 88.5l48 -44q-20 -40 -42 -83t-45.5 -85.5t-47 -83t-44.5 -75.5zM217 569
q-11 20 -29.5 44.5t-40 50.5t-45.5 51.5t-46 47.5l51 35q22 -21 46 -46t46 -49.5t41 -48.5t31 -44z"     />

    
    <glyph glyph-name="cid11435" unicode="&#x51C9;" d="M799 239q18 -26 37 -55t36.5 -58t32.5 -56t25 -48l-57 -28q-11 22 -26 49.5t-32.5 57t-36 59.5t-35.5 56zM644 298v-296q0 -29 -7.5 -42.5t-28.5 -21.5q-22 -8 -56.5 -9.5t-88.5 -1.5q-3 14 -10 30.5t-14 29.5q39 -2 73 -2t44 1q11 1 15 4t4 13v295h-212v271h490v-271
h-209zM427 355h359v156h-359v-156zM462 222q-30 -66 -70.5 -131.5t-79.5 -113.5q-8 8 -24.5 20.5t-28.5 18.5q40 45 77.5 105t63.5 120zM43 5q17 31 37.5 71t41 84.5t41 91.5t37.5 92l58 -31q-17 -42 -35.5 -87t-38.5 -89t-40 -85.5t-38 -77.5zM190 516q-9 25 -24 56.5
t-33 64.5t-38.5 66.5t-40.5 63.5l56 29q20 -29 41 -61t39.5 -64.5t34 -63t24.5 -54.5zM919 656h-619v62h288q-9 24 -21 51t-23 50l64 18q15 -28 30 -60.5t24 -58.5h257v-62z"     />

    
    <glyph glyph-name="cid11443" unicode="&#x51CC;" d="M847 291q-24 -63 -66.5 -116.5t-105.5 -98.5q122 -68 286 -92q-11 -11 -22 -27.5t-18 -29.5q-87 15 -163 43.5t-140 68.5q-133 -77 -334 -113q-6 12 -16 27t-21 26q96 16 174.5 41.5t141.5 57.5q-67 53 -114 125q-30 -27 -62.5 -50.5t-64.5 -42.5q-8 9 -22 24t-25 23
q81 43 153 107.5t116 142.5l60 -20q-12 -20 -25.5 -39.5t-27.5 -38.5h240l13 3zM493 244q23 -39 54.5 -72t71.5 -61q95 62 141 145h-255zM42 4q16 31 35.5 71t39.5 85t39 92t36 91l54 -29q-15 -42 -32.5 -87t-36 -89.5t-37.5 -86t-36 -76.5zM189 545q-9 22 -24 50t-33 57.5
t-38.5 59.5t-39.5 56l57 25q20 -25 40.5 -54t39 -57.5t34 -56t25.5 -49.5zM542 482q-23 -20 -49 -40.5t-53.5 -41t-55 -38.5t-52.5 -33q-8 8 -21.5 23t-23.5 23q51 26 105 61t94 70zM891 336q-18 13 -43.5 30t-55 34.5t-60 35t-58.5 31.5l39 38q27 -13 57 -29.5t59.5 -33
t55.5 -33t45 -29.5zM936 529h-646v58h291v101h-227v58h227v90h65v-90h221v-58h-221v-101h290v-58z"     />

    
    <glyph glyph-name="cid11501" unicode="&#x51EF;" d="M887 -7q6 0 9.5 5.5t6 20t3.5 40t2 65.5q10 -8 24.5 -14.5t27.5 -9.5q-2 -45 -6 -75t-11.5 -48t-20 -26t-30.5 -8h-57q-41 0 -54.5 19t-13.5 72v687h-139v-236q0 -62 -4.5 -135t-18 -147.5t-39 -146.5t-67.5 -132q-7 9 -23 22t-27 19q40 57 63.5 123t35.5 135t15 136.5
t3 126.5v293h262v-746q0 -26 3 -33t14 -7h42zM438 104q0 -14 2 -30.5t4 -26.5q-105 -26 -167.5 -42t-97 -25.5t-48.5 -14.5t-22 -10q-3 11 -10.5 28.5t-14.5 28.5q8 4 14.5 14.5t6.5 37.5v213h300v124h-319v60h380v-243h-23v-1h-280v-178zM487 548h-398v224h56v-169h113v228
h59v-228h113v169h57v-224z"     />

    
    <glyph glyph-name="cid11520" unicode="&#x51FA;" d="M890 339v-413h-72v58h-707v355h72v-290h280v355h-309v339h69v-274h240v366h72v-366h244v275h72v-340h-316v-355h283v290h72z"     />

    
    <glyph glyph-name="cid11540" unicode="&#x5206;" d="M669 816q23 -51 56.5 -103.5t71.5 -100.5t79 -89.5t80 -70.5q-13 -10 -28 -26t-25 -30q-39 33 -80 78.5t-80 97.5t-73.5 108.5t-60.5 111.5zM808 458q-1 -7 -1 -13v-20q-6 -115 -12 -195.5t-13 -134t-16.5 -83.5t-22.5 -45q-15 -17 -32 -23.5t-43 -8.5q-25 -2 -67.5 -1
t-90.5 4q-2 15 -7.5 33.5t-14.5 32.5q51 -5 93 -6t60 -1q17 0 26 2.5t17 9.5q10 10 17.5 34.5t14 70t11.5 113.5t10 165h-283q-10 -74 -29.5 -144t-58 -131t-100 -111.5t-156.5 -84.5q-6 13 -18 29.5t-23 26.5q89 30 146 74t92 98t52 116t25 127h-197v66h621zM398 795
q-51 -125 -127.5 -230.5t-165.5 -177.5q-9 11 -26 26t-30 24q90 66 162.5 164t116.5 213z"     />

    
    <glyph glyph-name="cid11553" unicode="&#x5211;" d="M910 817v-802q0 -35 -10 -52t-31 -26q-23 -9 -63 -11.5t-107 -1.5q-2 14 -8.5 33t-14.5 34q51 -2 90.5 -2t53.5 1q13 1 19 6t6 19v802h65zM708 175h-63v548h63v-548zM465 441h122v-64h-122v-442h-64v442h-165q-1 -63 -7.5 -124t-23 -118t-45 -110t-73.5 -102
q-9 11 -23 23t-26 20q41 45 67 94t40.5 101t20.5 106.5t7 109.5h-124v64h124v275h-102v64h488v-64h-94v-275zM401 441v275h-165v-275h165z"     />

    
    <glyph glyph-name="cid11561" unicode="&#x5217;" d="M917 832v-818q0 -33 -9.5 -49.5t-29.5 -24.5q-21 -8 -56 -10t-92 -2q-3 14 -9.5 32t-13.5 32q41 -1 76 -0.5t46 0.5q12 1 17 5t5 17v818h66zM711 164h-65v553h65v-553zM66 780h504v-64h-270q-20 -84 -45 -158h231l12 3l40 -13q-19 -129 -56.5 -230t-91 -178
t-120.5 -131.5t-144 -89.5q-7 13 -18.5 29t-22.5 27q75 30 140 81.5t116 126.5q-15 14 -33.5 30t-39.5 32t-42.5 31.5t-41.5 28.5l39 49q19 -12 39.5 -26t41 -29t39.5 -30t34 -28q30 54 53 117.5t37 137.5h-235q-25 -63 -55 -118t-65 -99q-8 8 -24.5 21.5t-27.5 21.5
q60 72 103.5 174.5t69.5 219.5h-167v64z"     />

    
    <glyph glyph-name="cid11567" unicode="&#x521B;" d="M908 820v-803q0 -36 -10.5 -52.5t-33.5 -24.5t-65 -10.5t-112 -1.5q-3 13 -9.5 31t-14.5 32q53 -2 96 -2t57 1q26 0 26 26v804h66zM710 170h-63v549h63v-549zM378 815q-5 -11 -9.5 -21.5t-9.5 -21.5q31 -32 64.5 -68t65 -72t59 -69t45.5 -60l-49 -44q-17 25 -41 57
t-52.5 66t-59.5 69t-62 67q-47 -83 -110 -157t-138 -132q-8 10 -23 23.5t-26 21.5q48 34 91 76.5t79.5 89t66 96t49.5 97.5zM453 -3q18 0 28.5 5.5t16.5 21t9 43t5 72.5q12 -8 29 -15t31 -10q-3 -52 -9.5 -85.5t-19 -53.5t-33.5 -28t-53 -8h-190q-35 0 -58 4.5t-37 16
t-20 31t-6 50.5v430h358q-1 -6 -1 -11t-0.5 -9.5t-0.5 -7.5q-4 -65 -8 -111t-8.5 -76.5t-11 -48.5t-14.5 -27q-11 -13 -24 -17.5t-31 -6.5q-16 -2 -42 -2t-55 2q-1 14 -5.5 30t-11.5 28q28 -3 52 -3.5t35 -0.5q10 0 16.5 1.5t12.5 7.5q9 10 16.5 53.5t13.5 139.5h-227v-371
q0 -28 11.5 -36t50.5 -8h181z"     />

    
    <glyph glyph-name="cid11588" unicode="&#x5229;" d="M908 825v-805q0 -36 -10.5 -53t-32.5 -25q-24 -9 -65.5 -11t-110.5 -2q-3 14 -10 33.5t-15 33.5q54 -2 96 -1.5t56 0.5q14 1 20 6t6 19v805h66zM695 170h-66v548h66v-548zM337 535h211v-62h-211v-26q18 -17 46.5 -45t58 -58t55 -55.5t36.5 -37.5l-38 -54q-12 14 -30.5 35
t-40 45t-44.5 49t-43 46v-446h-66v445q-20 -44 -43.5 -88t-49 -83.5t-52 -74t-52.5 -60.5q-6 14 -16.5 32t-19.5 29q30 29 61 69t60 85.5t54.5 95t43.5 97.5h-200v62h214v177q-51 -9 -100 -17t-97 -14q-2 12 -8 27t-13 26q55 8 114 18t114.5 22t104 26t83.5 29l50 -50
q-38 -16 -84 -29t-98 -24v-191z"     />

    
    <glyph glyph-name="cid11606" unicode="&#x5236;" d="M923 826v-804q0 -36 -9.5 -54t-30.5 -26q-23 -9 -62.5 -11t-95.5 -2q-3 14 -8.5 34t-13.5 37q45 -2 83 -2.5t51 0.5q12 0 17 4.5t5 18.5v805h64zM744 194h-63v549h63v-549zM359 518h246v-61h-246v-106h208v-276q0 -24 -5.5 -38t-23.5 -22q-17 -8 -45.5 -9.5t-71.5 -1.5
q-2 14 -7.5 29.5t-11.5 29.5q34 -2 58 -2t32 1q14 0 14 14v215h-147v-365h-64v365h-138v-284h-61v344h199v106h-246v61h246v111h-136q-12 -30 -25 -57.5t-27 -49.5q-10 6 -28 13.5t-31 11.5q17 25 32 56t28 65t23.5 70.5t18.5 72.5l62 -12q-7 -27 -15 -55t-17 -54h115v142
h64v-142h206v-61h-206v-111z"     />

    
    <glyph glyph-name="cid11608" unicode="&#x5237;" d="M913 819v-795q0 -34 -9.5 -51.5t-29.5 -25.5q-22 -9 -61 -11t-94 -2q-2 14 -7.5 34t-13.5 35q45 -2 81.5 -1.5t49.5 0.5q12 0 16.5 4.5t4.5 16.5v796h63zM739 174h-59v556h59v-556zM581 107q0 -21 -4.5 -34t-19.5 -21q-14 -8 -37 -9.5t-55 -1.5q-2 12 -7.5 27.5
t-11.5 27.5q26 -1 44 -1h24q11 1 11 13v246h-112v-432h-58v432h-104v-325h-52v382h156v106h58v-106h168v-304zM174 540v-85q0 -56 -3 -121t-12 -131.5t-26.5 -130t-45.5 -116.5q-4 4 -10.5 9.5t-13.5 11t-14 10t-12 6.5q26 50 41.5 109t23.5 120t10 121t2 112v341h466v-256
h-406zM174 735v-135h343v135h-343z"     />

    
    <glyph glyph-name="cid11640" unicode="&#x524D;" d="M944 676v-61h-887v61h252q-7 15 -17.5 32.5t-23 35.5t-26.5 36t-27 34l61 23q14 -16 29 -35t28.5 -37.5t24.5 -36.5t19 -33l-49 -19h303q12 18 25.5 39t26 43t24 43.5t20.5 39.5l69 -24q-21 -35 -44.5 -72t-46.5 -69h239zM670 106h-62v407h62v-407zM810 543h65v-532
q0 -32 -8.5 -47.5t-30.5 -23.5q-23 -8 -61 -10t-95 -2q-3 14 -10 32t-15 32q48 -2 84.5 -2t48.5 1q13 1 17.5 5t4.5 15v532zM480 5q0 -27 -7 -42t-27 -23t-54 -9.5t-85 -1.5q-3 13 -9 29.5t-13 29.5q39 -2 70.5 -2t41.5 1q11 1 15 4.5t4 13.5v142h-231v-218h-64v593h359
v-517zM185 464v-104h231v104h-231zM416 200v107h-231v-107h231z"     />

    
    <glyph glyph-name="cid11647" unicode="&#x5251;" d="M915 816v-804q0 -32 -9.5 -48t-30.5 -24t-61 -10.5t-106 -1.5q-2 13 -8 29.5t-14 30.5q52 -2 92 -1t52 1q14 1 20 5.5t6 18.5v804h59zM736 166h-59v550h59v-550zM378 823q-5 -10 -10 -18.5t-10 -18.5q36 -28 74 -60t73.5 -64t66 -62.5t51.5 -54.5l-40 -49q-20 24 -49 54
t-63 62t-70.5 64.5t-71.5 61.5q-55 -85 -124 -157.5t-141 -126.5q-5 10 -15 29t-19 30q43 29 84.5 66t79.5 79.5t70.5 89t57.5 96.5zM155 370q12 -26 22.5 -55t19.5 -58.5t16 -56.5t11 -49l-56 -20q-3 23 -9.5 51t-15 57.5t-19 59.5t-20.5 56zM325 170q-2 22 -6.5 50
t-10.5 57.5t-13.5 59t-14.5 56.5l53 12q8 -27 15.5 -56.5t14 -58.5t11.5 -56.5t8 -49.5zM509 478h-337v57h337v-57zM590 115l2 -58q-66 -12 -133.5 -24.5t-131 -24.5t-122 -23t-106.5 -20l-18 65q58 8 136.5 21.5t167.5 28.5q16 33 32.5 74t32.5 84.5t30 86.5t25 80l60 -16
q-12 -36 -26.5 -74.5t-29.5 -77.5t-30.5 -76.5t-30.5 -69.5z"     />

    
    <glyph glyph-name="cid11682" unicode="&#x5267;" d="M909 816v-811q0 -30 -8 -46t-26 -24q-19 -8 -51 -10t-84 -2q-3 13 -9 31t-12 32q38 -2 68.5 -2t39.5 1q11 1 15.5 5t4.5 15v811h62zM735 169h-60v548h60v-548zM421 428h190v-60h-190v-118h153v-317h-61v41h-250v-44h-59v320h157v118h-187q-4 -51 -11 -103.5t-17.5 -103.5
t-25 -99.5t-35.5 -90.5q-4 5 -10.5 12t-13.5 14.5t-14 14t-11 9.5q28 61 44 132t24.5 143t11 141t2.5 128v219h449v-242h-146v-114zM513 192h-250v-160h250v160zM181 725v-123h323v123h-323zM361 428v114h-180q0 -54 -3 -114h183z"     />

    
    <glyph glyph-name="uni529B" unicode="&#x529B;" d="M903 616q-1 -8 -1 -15q0 -6 -0.5 -12t-0.5 -9q-9 -156 -18 -263.5t-19 -178.5t-23 -110.5t-29 -58.5q-17 -20 -35.5 -28t-46.5 -10q-25 -2 -68 -1t-90 5q-2 14 -7.5 33.5t-15.5 33.5q52 -5 95.5 -6t62.5 -1q16 0 26.5 3t19.5 12q13 13 24.5 48t20.5 99t17 160.5t16 231.5
h-350q-5 -78 -23 -160.5t-59 -164.5t-111 -159.5t-179 -144.5q-8 13 -23.5 28.5t-27.5 23.5q103 62 169.5 133.5t105.5 146t56.5 150.5t22.5 147h-325v67h328q1 14 1 26v25v167h69v-167v-25t-1 -26h419z"     />

    
    <glyph glyph-name="cid11781" unicode="&#x529E;" d="M841 501q18 -37 35.5 -78.5t32.5 -82.5t27 -79t18 -68l-66 -23q-6 30 -17 68.5t-25.5 80t-31.5 83.5t-35 79zM250 469q-11 -33 -25.5 -70.5t-32 -75t-37.5 -72.5t-42 -63l-60 36q23 26 43.5 59t38 69t31.5 72t24 69zM749 612q0 -162 -5.5 -274t-15 -185t-22.5 -113
t-28 -58q-17 -20 -35 -28.5t-45 -10.5t-71 -1t-90 3q-1 16 -6.5 35.5t-15.5 34.5q51 -5 93.5 -5t62.5 -1q16 0 25 2.5t18 12.5q12 13 21.5 48.5t17 101.5t13 166.5t10.5 243.5h-211q-3 -80 -18.5 -167t-54.5 -173.5t-109 -169t-183 -153.5q-9 12 -24.5 28.5t-28.5 24.5
q106 66 172.5 142t104.5 155.5t53 159t18 153.5h-304v66h306v18v167h70v-167v-18h282v-38z"     />

    
    <glyph glyph-name="cid11782" unicode="&#x529F;" d="M937 571q0 -155 -6 -261.5t-15.5 -176t-22.5 -107.5t-27 -55q-16 -19 -32.5 -27t-41.5 -10q-24 -2 -64 -1t-83 4q-2 14 -7 32.5t-13 32.5q47 -5 86 -5.5t55 -0.5t25 2.5t17 12.5q12 12 21 45.5t16 96t13 158t12 231.5h-209q-6 -99 -22.5 -190t-50 -170t-89.5 -144.5
t-142 -113.5q-8 12 -22 27.5t-26 23.5q81 43 133.5 102.5t84.5 132.5t46.5 156.5t20.5 175.5h-168v64h171q3 102 3 212h67q0 -110 -3 -212h273v-35zM443 219q-51 -15 -102.5 -29.5t-101 -28.5t-95 -26.5t-84.5 -23.5l-17 67q34 8 75 19t88 22v433h-150v63h364v-63h-148v-415
q40 11 81 22t83 22z"     />

    
    <glyph glyph-name="cid11785" unicode="&#x52A1;" d="M853 707q-45 -68 -113.5 -120.5t-152.5 -92.5q80 -26 173 -41t196 -22q-11 -12 -21 -29t-16 -31q-116 10 -219 31.5t-191 57.5q-102 -40 -212.5 -64t-220.5 -38q-3 13 -11 30.5t-16 28.5q98 9 197 28.5t190 49.5q-47 26 -86 56.5t-70 68.5q-32 -26 -67 -50t-75 -47
q-7 11 -19 25.5t-23 22.5q52 28 97 61t81.5 67.5t64.5 69.5t48 68l70 -14q-14 -23 -30.5 -45.5t-36.5 -45.5h411l12 3zM323 658q32 -43 79.5 -76.5t108.5 -59.5q72 29 133 66.5t106 85.5h-412zM864 280q-1 -7 -1 -12q-1 -5 -1 -10t-1 -8q-7 -69 -15 -119t-18 -83.5t-21 -54
t-23 -31.5q-16 -14 -33.5 -19.5t-43.5 -6.5q-22 -1 -61.5 0t-83.5 3q-2 14 -7.5 30t-13.5 29q23 -2 45.5 -3.5t42.5 -2.5t35.5 -1h24.5q16 0 25.5 1.5t17.5 8.5q17 14 32.5 65t27.5 155h-310q-24 -61 -59 -108t-83 -82.5t-108.5 -61t-135.5 -43.5q-5 11 -16 28.5t-20 28.5
q136 25 222.5 81t129.5 157h-281v59h300q14 49 20 102l69 -6q-4 -26 -8.5 -50t-11.5 -46h364z"     />

    
    <glyph glyph-name="cid11795" unicode="&#x52A8;" d="M941 569q0 -154 -4.5 -260.5t-13 -175.5t-19.5 -106t-24 -53q-15 -19 -31 -26t-39 -9t-60.5 -1.5t-78.5 3.5q-1 14 -6.5 32.5t-14.5 32.5q45 -5 81 -5.5t52 -0.5q14 0 22.5 3t16.5 12q10 12 17.5 44.5t14 94t11.5 156t9 230.5h-157q-5 -92 -16.5 -180t-34.5 -167
t-60 -147.5t-92 -120.5q-9 12 -24 26t-28 21q51 47 85.5 109.5t56.5 136t33 155t16 167.5h-145v64h148q3 106 3 215h65q0 -54 -1 -107.5t-3 -107.5h221v-35zM450 65q-4 14 -8.5 31.5t-10.5 37.5q-106 -23 -169 -37t-98 -23t-49 -14t-22 -10q-3 11 -10 30.5t-13 32.5
q12 2 22.5 21t22.5 48q6 12 16 39.5t22 64t24 80t22 87.5h-141v62h437v-62h-228q-20 -82 -47.5 -164t-57.5 -151l250 52q-14 41 -29.5 81.5t-31.5 77.5l55 15q15 -34 30 -72t28.5 -75.5t25 -71.5t19.5 -60zM477 693h-382v60h382v-60z"     />

    
    <glyph glyph-name="cid11811" unicode="&#x52B3;" d="M940 739v-63h-233v-87h-67v87h-281v-87h-69v87h-228v63h228v96h69v-96h281v96h67v-96h233zM84 542h829v-166h-67v106h-698v-111h-64v171zM846 325q-1 -6 -1 -12q0 -5 -0.5 -10.5t-0.5 -9.5q-5 -81 -9.5 -138.5t-11 -96t-14.5 -61t-19 -33.5q-14 -16 -31 -21.5t-43 -7.5
q-25 -2 -69.5 -1t-94.5 4q-2 15 -8 33t-16 32q26 -3 51.5 -4t47 -2t38 -1h25.5q17 0 26.5 1.5t16.5 8.5t13.5 24t11.5 47.5t9 76t8 108.5h-302q-14 -63 -39.5 -115t-70 -93.5t-111 -73t-162.5 -53.5q-5 13 -16 30t-21 28q87 18 147.5 43.5t101.5 60t64.5 77.5t36.5 96h-265
v63h277q5 29 7.5 59.5t4.5 64.5h69q-4 -66 -12 -124h362z"     />

    
    <glyph glyph-name="cid11863" unicode="&#x52D2;" d="M926 571q0 -159 -4 -267t-10.5 -178t-16 -107t-21.5 -53q-14 -18 -29 -25.5t-38 -9.5q-21 -2 -54.5 -1t-70.5 3q-2 14 -7 31.5t-13 30.5q40 -3 73.5 -3t47.5 -1q13 0 20 2.5t14 11.5q9 11 16 44t12.5 96t9.5 160.5t7 237.5h-146q-5 -98 -17 -188t-37.5 -169t-67 -145
t-104.5 -117q-8 11 -22.5 25.5t-26.5 21.5q60 45 99 106t62.5 134t35 157t15.5 175h-146v62h149q2 55 2 111.5v114.5h63q0 -58 -0.5 -114.5t-2.5 -111.5h208v-34zM328 106v-182h-63v182h-220v58h220v85h-179v223h179v68h-106v142h-105v54h105v97h58v-97h160v97h59v-97h98
v-54h-98v-142h-108v-68h181v-223h-181v-85h209v-58h-209zM217 594h160v88h-160v-88zM451 418h-126v-115h126v115zM142 303h125v115h-125v-115z"     />

    
    <glyph glyph-name="cid11895" unicode="&#x52E4;" d="M926 577q0 -158 -3.5 -265t-10.5 -176t-16.5 -105.5t-21.5 -52.5q-13 -17 -28 -24.5t-37 -9.5q-20 -2 -52 -1.5t-67 2.5q-1 14 -6 31t-13 31q38 -3 68.5 -3t44.5 -1q12 0 19.5 2.5t15.5 11.5q9 11 15.5 43.5t11.5 95t9.5 159t7.5 235.5h-127q-3 -102 -12 -193.5
t-28.5 -170.5t-51.5 -146t-82 -119q-8 11 -22.5 23.5t-27.5 20.5q47 47 77 108t48 135t26.5 160t11.5 182h-115v61h116q2 53 2 109v114h61v-113.5t-2 -109.5h189v-34zM524 10q-63 -8 -126 -15t-122.5 -13.5t-114 -12.5t-99.5 -11l-8 60q45 4 100.5 8.5t119.5 10.5v71h-181
v52h181v60h-199v51h199v63h-186v189h186v58h-131v118h-91v53h91v82h60v-82h202v82h62v-82h82v-53h-82v-118h-133v-58h176v-189h-176v-63h186v-51h-186v-60h166v-52h-166v-66l190 18v-50zM203 630h202v69h-202v-69zM453 474h-122v-90h122v90zM142 384h135v90h-135v-90z"     />

    
    <glyph glyph-name="cid11947" unicode="&#x5305;" d="M782 9q32 0 52 5t32 19.5t17.5 39.5t9.5 64q12 -8 30.5 -15t32.5 -9q-5 -49 -14 -81t-28 -51t-50.5 -27t-81.5 -8h-387q-57 0 -94.5 5.5t-60.5 20.5t-32.5 40.5t-9.5 64.5v451h404v-291h-338v-160q0 -20 4.5 -33.5t18 -21t38.5 -10.5t65 -3h392zM264 468v-170h274v170
h-274zM269 637q-40 -57 -84 -105t-90 -86q-9 8 -26 23.5t-29 24.5q41 30 79.5 69t72.5 83.5t63 94t51 100.5l67 -19q-28 -61 -63 -121h559q-1 -7 -1 -13v-20q-5 -126 -9 -213t-9.5 -143t-13 -87t-17.5 -44q-13 -16 -27.5 -22.5t-34.5 -8.5t-50.5 -1.5t-65.5 2.5q-2 14 -6 32
t-12 31q34 -3 62.5 -3.5t40.5 -0.5t19.5 2.5t14.5 10.5q7 9 13 34.5t11 74t9 123t7 182.5h-531z"     />

    
    <glyph glyph-name="cid11978" unicode="&#x5316;" d="M822 9q20 0 32.5 9.5t20 33.5t11 65.5t6.5 106.5q14 -10 32 -19t33 -14q-4 -69 -10.5 -116.5t-20.5 -76.5t-38 -42t-63 -13h-182q-36 0 -60 6t-38 21.5t-20 41.5t-6 65v185q-36 -24 -71.5 -45t-70.5 -39q-8 11 -22.5 25.5t-26.5 24.5q48 23 95.5 52t95.5 62v475h70v-423
q82 64 153.5 138.5t125.5 156.5l64 -42q-68 -96 -157 -181t-186 -156v-235q0 -21 2.5 -33.5t9 -20t18.5 -10t30 -2.5h173zM384 815q-42 -103 -100 -197v-694h-69v591q-29 -41 -60 -77t-63 -66q-6 11 -20 31t-24 31q40 36 79 81.5t74 97.5t65.5 108t53.5 114z"     />

    
    <glyph glyph-name="cid11980" unicode="&#x5317;" d="M840 14q18 0 29 9t17.5 32.5t9.5 63.5t5 103q13 -11 31.5 -19.5t32.5 -12.5q-3 -68 -9 -114t-19 -74.5t-35 -41t-58 -12.5h-160q-34 0 -56 5.5t-35.5 20t-19 39t-5.5 62.5v741h68v-338q72 44 140.5 92t113.5 93l54 -54q-63 -51 -145 -102.5t-163 -97.5v-336
q0 -19 2 -30.5t7.5 -18t16 -8.5t27.5 -2h151zM328 816h68v-882h-68v227q-69 -29 -136 -57.5t-123 -51.5l-31 66q28 9 61.5 21.5t71 26.5t77 30t80.5 32v286h-260v65h260v237z"     />

    
    <glyph glyph-name="cid12051" unicode="&#x533A;" d="M771 93q-38 48 -94 107.5t-122 123.5q-65 -68 -133.5 -125.5t-139.5 -105.5q-8 10 -24.5 26t-28.5 24q75 45 145 102t135 123q-62 59 -125.5 115t-123.5 106l47 38q59 -48 121.5 -101.5t124.5 -110.5q52 59 97 121t82 128l62 -24q-42 -72 -90.5 -138.5t-104.5 -129.5
q68 -63 126.5 -123t99.5 -109zM948 19v-64h-846v824h822v-64h-756v-696h780z"     />

    
    <glyph glyph-name="cid12053" unicode="&#x533B;" d="M585 325q-1 -5 -1.5 -9.5t-2.5 -9.5l9 8q35 -25 73.5 -55t75.5 -60.5t69 -60t54 -53.5l-47 -45q-19 22 -47.5 50t-62 57.5t-70 59t-70.5 55.5q-14 -30 -36.5 -59.5t-58 -57.5t-85 -53t-115.5 -47q-7 11 -19 26t-22 25q76 22 128 49.5t85 57t50.5 60.5t25.5 62h-294v59
h302q1 6 1 12v12v127h-163q-20 -26 -40.5 -49t-43.5 -41q-8 7 -25.5 17.5t-28.5 16.5q49 39 90 94.5t64 118.5l63 -15q-17 -43 -40 -83h457v-59h-267v-127v-12t-1 -12h315v-59h-322zM950 27v-64h-851v816h828v-63h-762v-689h785z"     />

    
    <glyph glyph-name="cid12078" unicode="&#x5347;" d="M947 369h-218v-445h-67v445h-315q-3 -63 -14 -124t-39 -118t-76.5 -109t-125.5 -96q-8 11 -22 26.5t-25 23.5q71 40 115.5 86t70.5 97t36.5 105t13.5 109h-226v64h227v230q-49 -14 -98 -26.5t-97 -23.5q-2 12 -9 27.5t-14 26.5q59 13 120.5 30t119.5 36.5t108 40.5t87 44
l51 -54q-42 -22 -93.5 -42.5t-108.5 -38.5v-250h314v382h67v-382h218v-64z"     />

    
    <glyph glyph-name="cid12086" unicode="&#x534E;" d="M945 157h-411v-233h-69v233h-410v64h410v118h69v-118h410zM228 612q-31 -30 -62.5 -56t-63.5 -49q-4 4 -10 11t-13 14t-14 13.5t-13 10.5q40 25 79.5 56.5t75.5 67.5t67.5 76t55.5 81l62 -22q-20 -35 -45.5 -68t-52.5 -65v-344h-66v274zM531 560q-38 -11 -74.5 -21
t-73.5 -20q-3 12 -10 26.5t-13 25.5q42 11 85 23.5t86 26.5v201h66v-179q78 28 144.5 58.5t112.5 63.5l52 -50q-61 -39 -141 -72t-168 -62v-118q0 -24 10.5 -31t46.5 -7h170q15 0 24 4t14.5 16t8 34t4.5 58q11 -8 28 -15t31 -11q-3 -43 -9 -71t-17.5 -44.5t-30.5 -23
t-48 -6.5h-181q-34 0 -56.5 4.5t-36 15.5t-19 29.5t-5.5 47.5v97z"     />

    
    <glyph glyph-name="cid12088" unicode="&#x534F;" d="M897 469q11 -34 22 -71.5t20 -74.5t16 -71t11 -60l-62 -16q-3 27 -10 61.5t-15.5 72t-18.5 76t-20 72.5zM826 611q0 -168 -4 -282.5t-11 -188t-17 -112.5t-23 -56q-14 -19 -30.5 -26.5t-39.5 -10.5q-23 -2 -60.5 -1t-77.5 3q-2 14 -6.5 32t-13.5 32q44 -4 80.5 -5
t51.5 -1q14 0 23 3t16 13q10 12 17.5 46.5t13 101.5t9.5 170t8 252h-146q-2 -78 -13.5 -163t-42 -170.5t-85 -168.5t-142.5 -156q-8 11 -23 24t-27 20q84 70 136 147t81 156.5t40 158.5t13 152h-181v65h182v9v170h63v-179h209v-35zM452 462q-17 -80 -44 -154t-61 -127
q-8 8 -24 19t-27 18q34 48 58 115.5t38 139.5zM232 541v-615h-64v615h-116v62h116v233h64v-233h109v-62h-109z"     />

    
    <glyph glyph-name="cid12098" unicode="&#x5357;" d="M527 670q-5 -30 -8.5 -58.5t-8.5 -53.5h372v-553q0 -32 -9 -47.5t-32 -23.5q-24 -8 -66 -9.5t-103 -1.5q-3 14 -9.5 31t-13.5 30q48 -2 89 -2t54 1q14 1 18.5 5.5t4.5 16.5v492h-628v-572h-66v633h326q4 25 7.5 53.5t6.5 58.5h-397v62h403q2 28 4 55t3 50l71 -8l-12 -97
h405v-62h-411zM529 123v-181h-63v181h-220v56h220v108h-200v55h296q17 32 33.5 70.5t27.5 69.5l58 -14q-14 -32 -29.5 -65t-30.5 -61h120v-55h-212v-108h228v-56h-228zM371 478q19 -27 36 -60t24 -58l-54 -18q-8 26 -23.5 60t-34.5 62z"     />

    
    <glyph glyph-name="cid12103" unicode="&#x535A;" d="M956 163h-145v-166q0 -26 -7 -40t-27 -21q-21 -8 -55 -8.5t-87 -0.5q-2 13 -7.5 28t-11.5 27q42 -1 73 -1t42 1q11 0 14 3.5t3 12.5v165h-433v58h433v59h63v-59h145v-58zM457 150q18 -14 38 -29.5t39.5 -31.5t36.5 -30.5t29 -25.5l-40 -45q-12 12 -29 27.5t-36 32
t-39 33.5t-38 31zM235 508v-583h-65v583h-125v62h125v265h65v-265h110v-62h-110zM614 670h-274v55h274v110h61v-110h190q-13 7 -29.5 16t-34.5 18t-36 18.5t-34 17.5l28 39q35 -16 76 -35.5t67 -33.5l-26 -40h71v-55h-272v-60h223v-333h-60v68h-163v-65h-61v65h-164v-74h-59
v339h223v60zM450 561v-62h164v62h-164zM614 391v62h-164v-62h164zM838 391v62h-163v-62h163zM675 561v-62h163v62h-163z"     />

    
    <glyph glyph-name="cid12129" unicode="&#x536B;" d="M947 28v-65h-892v65h368v668h-304v66h746v-425q0 -32 -9 -49.5t-35 -25.5q-27 -9 -74.5 -10t-117.5 -1q-2 14 -10 33t-16 33q60 -2 107 -2.5t63 1.5q15 0 20 5t5 17v358h-304v-668h453z"     />

    
    <glyph glyph-name="cid12138" unicode="&#x5370;" d="M910 171q0 -31 -8 -49.5t-31 -27.5q-23 -10 -62.5 -11.5t-96.5 -1.5q-3 15 -11 35.5t-16 35.5q48 -2 86 -2t51 1t17 5.5t4 15.5v527h-241v-773h-66v838h374v-593zM175 482h280v-64h-280v-277l276 69q0 -15 1 -33t3 -29q-112 -30 -179 -48.5t-104 -29.5t-52 -17t-24 -11
q-4 13 -12.5 34.5t-17.5 34.5q12 6 26.5 21.5t14.5 44.5v542q39 9 80 20.5t79.5 24t72.5 26t59 26.5l54 -52q-57 -26 -130.5 -48t-146.5 -39v-195z"     />

    
    <glyph glyph-name="cid12174" unicode="&#x5386;" d="M943 722h-755v-248q0 -60 -3 -130.5t-12.5 -143.5t-27 -143t-47.5 -129q-4 4 -11.5 9.5t-15.5 11t-16 10t-14 6.5q27 56 43 121.5t24.5 132.5t10.5 132.5t2 122.5v311h822v-63zM889 499v-13q0 -5 -0.5 -10.5t-0.5 -8.5q-7 -125 -14 -212t-15 -144.5t-18 -89.5t-24 -48
q-15 -17 -31.5 -24t-42.5 -9q-24 -2 -65.5 -1t-86.5 4q-2 15 -7 33.5t-15 32.5q48 -5 90 -6t59 -1q15 0 24.5 2.5t17.5 10.5q10 10 19 37.5t16 77.5t13 125t12 181h-268q-8 -83 -25.5 -158t-51.5 -139.5t-86.5 -117.5t-131.5 -92q-6 11 -19 25.5t-25 22.5q73 35 122.5 83
t80 106t46.5 126t23 144h-230v63h234q3 41 4 83t2 86h69q-2 -44 -3.5 -85.5t-3.5 -83.5h332z"     />

    
    <glyph glyph-name="cid12201" unicode="&#x539A;" d="M952 106h-343v-106q0 -26 -8 -39.5t-30 -20.5q-23 -7 -62.5 -8t-101.5 -1q-3 13 -9.5 27.5t-14.5 26.5q50 -1 89.5 -1t51.5 1q12 0 16.5 3.5t4.5 13.5v104h-333v55h333v51q42 11 86.5 27.5t82.5 34.5h-419v49h501l13 4l42 -35q-50 -32 -114 -60t-128 -48v-23h343v-55z
M297 384v279h541v-279h-541zM360 547h413v69h-413v-69zM360 431h413v72h-413v-72zM202 719v-229q0 -62 -3.5 -134.5t-14.5 -147.5t-32 -148t-56 -134q-9 8 -26.5 19t-29.5 15q33 59 52.5 127t29.5 138.5t12.5 138.5t2.5 127v289h802v-61h-737z"     />

    
    <glyph glyph-name="cid12210" unicode="&#x539F;" d="M939 716h-737v-219q0 -60 -3.5 -131.5t-14.5 -145t-32 -145t-56 -131.5q-9 8 -26.5 18.5t-29.5 15.5q33 57 52.5 124t29 136t12.5 135.5t3 123.5v281h802v-62zM751 197q23 -23 48.5 -50t50 -53.5t46.5 -51.5t37 -44l-55 -36q-15 20 -36 45.5t-45.5 53.5t-50 56t-48.5 52z
M607 252v-252q0 -27 -7.5 -41.5t-27.5 -22.5q-22 -8 -59.5 -9t-96.5 -1q-2 13 -8 29t-13 30q46 -2 81.5 -1.5t46.5 0.5q12 1 16 4.5t4 12.5v251h-246v355h198q12 23 22 49.5t17 46.5l77 -12q-11 -21 -22.5 -42.5t-22.5 -41.5h292v-355h-251zM361 455h430v98h-430v-98z
M361 306h430v98h-430v-98zM436 178q-19 -27 -41 -55.5t-45.5 -56t-46.5 -53t-44 -45.5q-10 8 -27 19t-29 19q22 19 45.5 42t46 48.5t43 51.5t37.5 51z"     />

    
    <glyph glyph-name="cid12218" unicode="&#x53A6;" d="M796 163q-29 -42 -70 -75t-92 -59q70 -20 150.5 -32t168.5 -17q-10 -11 -20 -27t-16 -29q-100 8 -190 26t-166 47q-78 -29 -166 -46t-180 -26q-4 11 -12 26t-16 25q80 6 157.5 19t146.5 33q-34 18 -62.5 38.5t-52.5 44.5q-32 -18 -66.5 -34.5t-73.5 -31.5
q-6 11 -17.5 23.5t-21.5 18.5q87 30 153.5 68t109.5 77h-144v326h202q5 14 10 29.5t10 30.5h-306v50h681v-50h-307q-8 -16 -15 -31t-13 -29h242v-326h-280q-24 -24 -54 -48h259l12 3zM378 464h378v52h-378v-52zM378 370h378v53h-378v-53zM378 274h378v54h-378v-54zM425 138
q26 -26 60.5 -46.5t76.5 -37.5q41 17 75.5 37.5t61.5 46.5h-274zM196 495q0 -62 -3.5 -135.5t-14.5 -149.5t-31 -149.5t-54 -134.5q-8 8 -26 20.5t-30 17.5q33 58 51.5 126.5t28.5 138.5t12.5 138.5t2.5 127.5v291h807v-60h-743v-231z"     />

    
    <glyph glyph-name="cid12285" unicode="&#x53CC;" d="M914 748q-21 -172 -66.5 -307t-111.5 -239q42 -73 97 -129.5t126 -94.5q-13 -11 -26.5 -27t-21.5 -30q-68 40 -121.5 95t-95.5 125q-54 -71 -115.5 -124.5t-130.5 -91.5q-7 12 -20 29t-25 27q73 37 137 93t118 134q-49 101 -82 223t-54 263h-27v63h365l11 3zM585 694
q17 -119 45 -225t69 -196q50 85 86 190t56 231h-256zM409 53q-16 36 -40 79t-54 91q-45 -98 -102.5 -171.5t-123.5 -126.5q-8 11 -21.5 27.5t-26.5 24.5q69 50 127 128.5t104 183.5q-45 66 -94 133t-97 125l49 37q42 -51 86 -107.5t85 -114.5q26 74 46 157t32 175h-310v63
h327l11 3l43 -12q-14 -133 -40 -245t-63 -207q38 -55 68 -106t50 -93z"     />

    
    <glyph glyph-name="cid12292" unicode="&#x53D1;" d="M835 413q-32 -95 -81.5 -170t-113.5 -133q66 -46 145.5 -79t173.5 -51q-11 -11 -22.5 -28t-18.5 -31q-194 45 -330 147q-69 -51 -147 -87t-163 -59q-5 13 -15.5 29t-19.5 27q79 20 153.5 53t140.5 80q-94 87 -156 206q-53 -96 -125 -174t-171 -140q-7 11 -21.5 26.5
t-27.5 23.5q138 85 224.5 208t135.5 281h-141q-48 0 -73 -4t-32 -12q-4 11 -10.5 31.5t-12.5 32.5q10 2 18 12.5t17 26.5q4 7 12.5 25t18 42.5t19.5 52.5t16 57l72 -13q-15 -49 -34.5 -97.5t-39.5 -88.5h188q29 110 42 232l74 -12q-8 -58 -18 -112.5t-23 -107.5h437l-1 -65
h-454q-8 -29 -17 -56.5t-20 -53.5h344l12 3zM421 368q59 -128 166 -218q51 45 91.5 99t67.5 119h-325zM802 639q-11 15 -26 33.5t-32.5 38t-35.5 39.5t-34 38l50 31q16 -17 34.5 -36t36.5 -38t33 -37t26 -32z"     />

    
    <glyph glyph-name="uni53E3" unicode="&#x53E3;" d="M871 730v-775h-71v81h-599v-86h-68v780h738zM800 103v560h-599v-560h599z"     />

    
    <glyph glyph-name="cid12322" unicode="&#x53E4;" d="M535 589v-222h302v-440h-71v50h-531v-54h-68v444h298v222h-407v65h407v182h70v-182h410v-65h-410zM766 304h-531v-263h531v263z"     />

    
    <glyph glyph-name="cid12341" unicode="&#x53F0;" d="M654 718q37 -32 75.5 -69.5t74.5 -76t66 -76t50 -68.5l-57 -40q-12 20 -27.5 42t-35.5 46q-145 -8 -249 -14t-175.5 -10.5t-116 -7.5t-71 -5.5t-39.5 -5.5t-22 -6q-2 11 -9 31.5t-12 33.5q15 4 35 19.5t46 40.5q13 12 40 40.5t60 67.5t68.5 84.5t65.5 92.5l65 -30
q-62 -84 -128.5 -160.5t-135.5 -139.5l530 26q-35 40 -74 79t-76 72zM184 340h632v-413h-70v53h-495v-55h-67v415zM251 276v-232h495v232h-495z"     />

    
    <glyph glyph-name="cid12344" unicode="&#x53F3;" d="M413 582q-20 -53 -43.5 -102t-52.5 -97h545v-455h-69v52h-456v-57h-66v390q-40 -55 -87 -103t-104 -89q-8 12 -20.5 27t-23.5 26q109 75 183 180.5t123 227.5h-274v65h297q33 93 52 189l69 -14q-11 -44 -23 -87.5t-27 -87.5h500v-65h-523zM337 319v-275h456v275h-456z
"     />

    
    <glyph glyph-name="cid12349" unicode="&#x53F6;" d="M956 423h-245v-500h-68v500h-244v65h244v337h68v-337h245v-65zM364 167h-215v-76h-62v653h277v-577zM149 679v-447h153v447h-153z"     />

    
    <glyph glyph-name="cid12352" unicode="&#x53F8;" d="M882 28q0 -36 -9 -55t-34 -28q-26 -9 -72 -11t-113 -2q-2 15 -8.5 36t-14.5 37q54 -2 99 -2t61 1q14 0 19 5t5 19v678h-723v64h790v-742zM700 536h-602v60h602v-60zM628 108h-399v-74h-65v388h464v-314zM229 363v-196h334v196h-334z"     />

    
    <glyph glyph-name="cid12374" unicode="&#x5408;" d="M576 808q-7 -12 -15 -23t-17 -22q86 -93 192 -159.5t228 -120.5q-13 -11 -25.5 -27.5t-20.5 -30.5q-119 57 -221.5 125.5t-190.5 164.5q-51 -59 -112 -110.5t-129 -95.5h487v-62h-502v52q-38 -23 -77.5 -44t-80.5 -38q-8 12 -20.5 28.5t-26.5 28.5q71 28 140 66.5
t130.5 85t113 100t89.5 111.5zM200 322h613v-392h-70v54h-476v-58h-67v396zM267 262v-215h476v215h-476z"     />

    
    <glyph glyph-name="cid12375" unicode="&#x5409;" d="M533 630v-154h350v-64h-756v64h337v154h-398v62h398v144h69v-144h399v-62h-399zM185 294h640v-380h-71v50h-502v-50h-67v380zM252 234v-208h502v208h-502z"     />

    
    <glyph glyph-name="cid12378" unicode="&#x540C;" d="M910 11q0 -32 -9.5 -49.5t-30.5 -25.5q-23 -9 -61.5 -11t-103.5 -2q-3 14 -10 32.5t-15 32.5q49 -2 88 -2t52 1q25 1 25 24v709h-688v-798h-65v861h818v-772zM756 551h-507v58h507v-58zM362 129v-74h-62v387h400v-313h-338zM362 385v-199h276v199h-276z"     />

    
    <glyph glyph-name="cid12380" unicode="&#x540D;" d="M845 -75h-67v54h-456v-54h-66v334q-43 -15 -85 -27.5t-84 -22.5q-4 14 -14 32t-20 29q94 20 190 54t186 83q-33 31 -76 65t-82 61l50 38q42 -28 87.5 -63t80.5 -66q78 48 142.5 105.5t110.5 126.5h-379q-49 -48 -108.5 -91t-131.5 -81q-8 11 -21.5 26.5t-24.5 23.5
q60 29 112 64t94 72.5t74.5 75.5t54.5 74l74 -15q-14 -22 -30.5 -44t-35.5 -44h364l12 4l44 -28q-32 -61 -75.5 -114.5t-95.5 -100.5t-111.5 -87t-123.5 -73h411v-411zM778 40v235h-456v-235h456z"     />

    
    <glyph glyph-name="cid12383" unicode="&#x540E;" d="M949 559v-64h-726v-6q0 -62 -4.5 -135t-18.5 -149t-39.5 -149t-68.5 -134q-8 11 -25.5 25t-29.5 21q40 57 63.5 124t35.5 136t15.5 136.5t3.5 124.5v256q89 6 183 14t182.5 18t167 22.5t135.5 26.5l56 -54q-64 -15 -142.5 -27.5t-164 -23t-175 -18t-174.5 -13.5v-131h726
zM312 348h563v-424h-69v52h-427v-53h-67v425zM379 285v-247h427v247h-427z"     />

    
    <glyph glyph-name="cid12385" unicode="&#x5410;" d="M956 33v-65h-630v65h293v420h-225v65h225v301h68v-301h239v-65h-239v-420h269zM140 167v-76h-61v653h259v-577h-198zM140 679v-447h136v447h-136z"     />

    
    <glyph glyph-name="cid12386" unicode="&#x5411;" d="M901 18q0 -35 -9.5 -54t-34.5 -27q-26 -9 -71.5 -10t-114.5 -1q-2 14 -9.5 34.5t-15.5 34.5q56 -2 102 -2t62 1q14 1 19.5 6t5.5 19v579h-666v-671h-66v736h275q19 40 36.5 88t27.5 86l78 -20q-17 -38 -34.5 -78.5t-34.5 -75.5h450v-645zM367 130v-73h-62v402h391v-329
h-329zM367 399v-208h267v208h-267z"     />

    
    <glyph glyph-name="cid12393" unicode="&#x5415;" d="M869 318v-391h-70v40h-597v-43h-68v394h735zM799 30v225h-597v-225h597zM809 455h-613v327h613v-327zM741 720h-479v-202h479v202z"     />

    
    <glyph glyph-name="cid12464" unicode="&#x543E;" d="M951 417v-59h-901v59h254q10 31 19.5 68t20.5 76h-172v57h186q8 32 14.5 63t12.5 60h-258v59h754v-59h-428q-7 -29 -14 -60t-15 -63h282l12 3l47 -4q-2 -48 -6 -100t-9 -100h201zM412 561q-11 -40 -20.5 -76.5t-17.5 -67.5h311q4 35 7 73.5t5 70.5h-285zM183 255h639
v-333h-68v49h-506v-51h-65v335zM248 197v-167h506v167h-506z"     />

    
    <glyph glyph-name="cid12487" unicode="&#x544A;" d="M940 463v-62h-876v62h423v165h-251q-23 -40 -47.5 -74.5t-49.5 -63.5q-10 7 -28.5 18t-31.5 18q56 55 101.5 134.5t74.5 164.5l66 -15q-11 -32 -24 -61.5t-27 -58.5h217v146h69v-146h308v-62h-308v-165h384zM189 298h631v-383h-68v57h-497v-58h-66v384zM255 236v-202h497
v202h-497z"     />

    
    <glyph glyph-name="cid12503" unicode="&#x5458;" d="M850 460v-361h-71v299h-550v-305h-68v367h689zM561 119q45 -15 96 -33t101.5 -37t95.5 -37.5t78 -33.5l-35 -56q-31 16 -75 35.5t-94 39.5t-102 39.5t-98 34.5zM531 331v-94q0 -39 -12.5 -81.5t-55.5 -83.5t-126 -80t-224 -70q-6 11 -18.5 27.5t-23.5 27.5
q90 18 154.5 38.5t107.5 43t68.5 45.5t39 46.5t17 45.5t3.5 43v92h70zM812 790v-238h-618v238h618zM262 611h479v121h-479v-121z"     />

    
    <glyph glyph-name="cid12527" unicode="&#x5468;" d="M874 13q0 -35 -9.5 -51.5t-32.5 -24.5t-64 -10t-109 -2q-2 14 -8.5 32t-14.5 31q51 -2 92 -1t54 1q14 1 20 5.5t6 18.5v713h-589v-255q0 -62 -4 -134t-17.5 -145.5t-39 -143.5t-68.5 -129q-4 5 -10.5 11.5t-14 12.5t-14.5 11t-13 8q40 55 63 120t35 131.5t15 132.5t3 125
v317h720v-774zM375 54v-56h-62v314h387v-258h-325zM375 258v-151h262v151h-262zM470 456v104h-183v55h183v89h64v-89h193v-55h-193v-104h219v-55h-491v55h208z"     />

    
    <glyph glyph-name="cid12558" unicode="&#x547C;" d="M749 403q12 25 25.5 57t26.5 66t24.5 68.5t19.5 63.5l64 -19q-12 -32 -25.5 -66.5t-27.5 -68.5t-27.5 -65t-26.5 -55zM458 643q14 -28 27 -59.5t23.5 -62.5t18 -60.5t11.5 -53.5l-59 -20q-3 24 -10.5 54t-18 61.5t-23 63t-25.5 59.5zM953 287h-270v-273q0 -33 -9.5 -49.5
t-30.5 -24.5q-23 -8 -61.5 -10t-101.5 -2q-2 14 -9 32t-14 32q48 -2 86 -2t51 1q23 0 23 23v273h-260v63h260v357q-59 -7 -117 -12.5t-115 -9.5q-2 11 -7 27.5t-11 27.5q66 5 136 12.5t136.5 17.5t125.5 21t102 24l46 -53q-48 -14 -106.5 -25.5t-123.5 -20.5v-366h270v-63z
M313 202h-174v-95h-60v624h234v-529zM139 669v-404h114v404h-114z"     />

    
    <glyph glyph-name="cid12580" unicode="&#x548C;" d="M898 743v-768h-67v76h-233v-83h-65v775h365zM831 115v564h-233v-564h233zM319 542h179v-62h-179v-27q14 -15 38.5 -43.5t50.5 -58.5t48.5 -57t31.5 -39l-41 -54q-9 14 -23.5 35.5t-32 45.5t-36.5 48.5t-36 45.5v-449h-67v453q-19 -44 -41 -88t-46 -83.5t-49 -74.5
t-49 -61q-6 14 -17.5 31.5t-19.5 29.5q28 29 57.5 68.5t56.5 85.5t51 95t41 97h-182v62h198v172q-43 -7 -85.5 -13t-83.5 -11q-2 12 -7.5 27t-10.5 26q49 7 102.5 15.5t104 19t95 22.5t76.5 26l46 -52q-35 -13 -78.5 -24.5t-91.5 -22.5v-185z"     />

    
    <glyph glyph-name="cid12648" unicode="&#x54B8;" d="M884 495q-28 -98 -66.5 -181t-89.5 -154q25 -84 57 -129t72 -45q10 0 17.5 10t13 31.5t9 56t5.5 83.5q11 -11 26.5 -20t28.5 -13q-4 -61 -11.5 -101.5t-19.5 -65t-30 -34.5t-43 -10q-57 0 -99.5 46.5t-71.5 130.5q-45 -52 -96 -95t-111 -78q-7 10 -21.5 26.5t-25.5 26.5
q69 37 126 85.5t105 108.5q-23 88 -36 196.5t-20 235.5h-408v-205q0 -53 -3.5 -115t-15 -125.5t-32 -124.5t-54.5 -111q-4 4 -10.5 10t-14 12t-14.5 11.5t-13 8.5q31 47 49.5 102.5t28.5 113t12.5 113.5t2.5 105v268h469q-3 79 -3 165h66v-84t2 -81h200q-14 13 -34 29
t-42.5 32.5t-46.5 32t-46 28.5l39 39q22 -12 46.5 -27.5t48 -31t44 -31.5t34.5 -29l-39 -42h75v-63h-277q5 -106 15 -196.5t26 -165.5q71 115 112 266zM558 455h-305v57h305v-57zM319 98v-57h-56v327h292v-270h-236zM319 313v-160h179v160h-179z"     />

    
    <glyph glyph-name="cid12663" unicode="&#x54C1;" d="M920 357v-426h-66v48h-240v-55h-64v433h370zM854 43v250h-240v-250h240zM88 357h349v-423h-66v45h-220v-55h-63v433zM151 293v-250h220v250h-220zM772 466h-538v327h538v-327zM705 729h-406v-199h406v199z"     />

    
    <glyph glyph-name="cid12673" unicode="&#x54C8;" d="M696 815q-3 -7 -6 -13.5t-6 -14.5q23 -45 54 -89.5t67 -84.5t75 -73t78 -55q-12 -9 -26 -25t-23 -30q-35 23 -70 55t-68 70.5t-62.5 81t-53.5 87.5q-31 -59 -70.5 -113.5t-87.5 -102.5h318v-61h-328v51q-22 -21 -45 -41t-49 -37q-7 10 -21.5 24.5t-25.5 22.5
q49 33 92.5 75t80 89t65 98.5t47.5 103.5zM440 329h417v-405h-67v52h-285v-55h-65v408zM505 269v-233h285v233h-285zM332 189h-192v-96h-61v646h253v-550zM140 678v-427h130v427h-130z"     />

    
    <glyph glyph-name="cid12779" unicode="&#x5510;" d="M591 683v-81h261v-134h86v-52h-86v-133h-261v-86h273v-274h-68v43h-453v-43h-66v274h251v86h-253v51h253v82h-319v52h319v83h-247v51h247v81h-342v-236q0 -57 -3.5 -125.5t-13.5 -139t-28.5 -138.5t-49.5 -124q-9 9 -26 20t-28 16q29 54 46 117t26 128t11.5 128.5
t2.5 117.5v296h413q-8 21 -19.5 44t-22.5 43l61 19q16 -24 30.5 -53t23.5 -53h331v-60h-349zM796 146h-453v-127h453v127zM789 416h-198v-82h198v82zM591 551v-83h198v83h-198z"     />

    
    <glyph glyph-name="cid12865" unicode="&#x5546;" d="M936 726v-58h-871v58h419q-8 23 -18.5 48.5t-21.5 47.5l63 17q13 -27 26.5 -57.5t23.5 -55.5h379zM337 664q17 -26 35.5 -58t28.5 -54l-59 -25q-11 22 -29 55t-35 61zM880 3q0 -29 -8.5 -42.5t-29.5 -20.5q-22 -7 -60.5 -8t-103.5 -1q-2 11 -8 25.5t-13 25.5
q24 -1 46.5 -1h41t31.5 0.5t19 0.5q13 1 18 5t5 16v460h-630v-537h-64v593h460q21 31 43 69.5t36 69.5l70 -16q-19 -32 -40 -64t-41 -59h228v-516zM759 254q-17 15 -40 34.5t-49.5 40.5t-54.5 41.5t-53 38.5l39 40q24 -17 51.5 -36.5t54.5 -39.5t50.5 -38.5t40.5 -33.5z
M375 53v-47h-58v271h361v-224h-303zM375 226v-122h247v122h-247zM445 420q-19 -23 -42.5 -46t-48.5 -45.5t-50.5 -42.5t-48.5 -36q-2 4 -6 10.5t-8.5 14t-9.5 14.5t-9 12q45 29 92.5 66t81.5 75z"     />

    
    <glyph glyph-name="cid12956" unicode="&#x5580;" d="M862 555q-28 -55 -66 -102t-86 -85q56 -35 120 -60.5t132 -41.5q-7 -12 -13.5 -28.5t-9.5 -30.5q-75 21 -145 52.5t-130 73.5q-65 -45 -138 -77.5t-149 -54.5q-5 12 -16.5 29t-21.5 25q73 19 143.5 47t131.5 67q-31 25 -58 52.5t-48 56.5q-23 -23 -49.5 -44.5
t-57.5 -40.5q-7 10 -18.5 22t-21.5 19q77 45 126.5 104.5t72.5 114.5l62 -9q-8 -17 -16.5 -33t-18.5 -33h224l11 2zM545 519q22 -32 51 -61.5t64 -55.5q71 56 115 123h-225zM451 224h398v-296h-62v28h-276v-31h-60v299zM511 169v-158h276v158h-276zM326 130h-188v-90h-57
v705h245v-615zM138 686v-497h132v497h-132zM435 575h-59v165h252q-9 19 -18.5 40t-18.5 39l61 17q12 -22 25 -48.5t23 -47.5h242v-165h-61v109h-446v-109z"     />

    
    <glyph glyph-name="cid12964" unicode="&#x5584;" d="M946 311v-55h-889v55h201q-9 21 -24 45.5t-31 44.5l60 17q20 -23 38 -51t26 -50l-18 -6h155v109h-378v52h378v76h-293v51h293v74h-351v52h194q-9 20 -23.5 45t-31.5 45l59 19q19 -22 36.5 -48.5t25.5 -46.5l-38 -14h283q16 23 34 55t29 57l67 -17q-14 -25 -30 -50
t-31 -45h204v-52h-359v-74h297v-51h-297v-76h389v-52h-389v-109h138q14 24 30 53.5t27 52.5l65 -17q-12 -23 -25.5 -46t-27.5 -43h207zM190 193h629v-265h-68v32h-496v-35h-65v268zM255 139v-125h496v125h-496z"     />

    
    <glyph glyph-name="cid13207" unicode="&#x5609;" d="M935 765v-53h-404v-64h336v-51h-733v51h330v64h-396v53h396v70h67v-70h404zM711 347q-11 -17 -21.5 -34.5t-20.5 -32.5h259v-53h-860v53h267q-7 16 -18.5 35.5t-25.5 34.5l43 10h-159v180h657v-180h-174zM237 408h530v84h-530v-84zM355 360q15 -15 27.5 -34.5t18.5 -34.5
l-41 -11h240q12 20 24 41.5t20 38.5h-289zM548 177h340v-248h-62v30h-217v-33h-61v251zM609 126v-116h217v116h-217zM486 155q-1 -6 -1 -10t-0.5 -8.5t-0.5 -7.5q-8 -83 -17.5 -123t-23.5 -54q-11 -11 -23.5 -15t-30.5 -5h-44t-60 2q-1 12 -5 26.5t-10 25.5q31 -4 57 -4.5
t37 -0.5t17.5 1.5t11.5 6.5q8 8 14.5 33.5t12.5 80.5h-143q-21 -64 -67.5 -108t-132.5 -71q-5 10 -14.5 23t-18.5 21q71 21 111 54t60 81h-135v52h151q7 29 10 67h60q-2 -18 -4.5 -34.5t-5.5 -32.5h195z"     />

    
    <glyph glyph-name="cid13579" unicode="&#x56DB;" d="M905 748v-783h-69v69h-677v-76h-66v790h812zM836 98v586h-205v-322q0 -24 4.5 -34t21.5 -10h103q12 0 29 1t27 4q1 -14 2 -29.5t3 -27.5q-8 -3 -25 -4t-34 -1h-113q-49 0 -65 23.5t-16 78.5v321h-147q-2 -103 -10 -183.5t-29.5 -141.5t-61 -105.5t-105.5 -75.5
q-5 12 -17.5 27.5t-22.5 24.5q59 27 94 66t54 93.5t25 127t8 167.5h-197v-586h677z"     />

    
    <glyph glyph-name="cid13593" unicode="&#x56E2;" d="M911 791v-867h-70v42h-685v-42h-67v867h822zM841 27v702h-685v-702h685zM779 495h-160v-328q0 -28 -7 -42t-26 -22t-49.5 -10t-79.5 -2q-2 14 -8.5 30.5t-13.5 29.5q35 -1 64.5 -0.5t38.5 0.5q10 1 13.5 3.5t3.5 12.5v251q-63 -75 -142 -137.5t-157 -107.5q-7 8 -19 21.5
t-23 22.5q43 24 87 54.5t85.5 66t79 75.5t67.5 82h-306v61h328v129h64v-129h160v-61z"     />

    
    <glyph glyph-name="cid13609" unicode="&#x56ED;" d="M916 788v-864h-68v46h-696v-46h-66v864h830zM848 33v693h-696v-693h696zM728 150q8 0 13.5 3.5t8.5 14t4.5 31t2.5 53.5q10 -8 25 -14.5t28 -9.5q-2 -40 -6.5 -65.5t-13.5 -40.5t-22.5 -21t-34.5 -6h-102q-50 0 -66.5 17t-16.5 64v215h-124q-4 -65 -15 -116t-34 -91
t-61 -69.5t-96 -50.5q-5 11 -16 25.5t-22 22.5q52 18 86 42.5t54.5 58.5t30 78t13.5 100h-169v57h606v-57h-194v-215q0 -17 5 -21.5t25 -4.5h91zM740 564h-478v55h478v-55z"     />

    
    <glyph glyph-name="cid13634" unicode="&#x56FD;" d="M910 789v-866h-69v51h-684v-51h-67v866h820zM841 36v691h-684v-691h684zM638 346q14 -12 29 -26.5t29 -29.5t25.5 -29.5t19.5 -26.5l-45 -27q-15 24 -44 56.5t-58 58.5zM779 191v-57h-551v57h236v177h-193v58h193v151h-221v60h515v-60h-232v-151h206v-58h-206v-177h253z
"     />

    
    <glyph glyph-name="cid13635" unicode="&#x56FE;" d="M912 791v-867h-66v43h-693v-43h-64v867h823zM846 27v703h-693v-703h693zM743 606q-32 -51 -78.5 -94t-102.5 -79q60 -29 125.5 -50t134.5 -33q-10 -8 -21 -23.5t-17 -26.5q-72 15 -142.5 40.5t-133.5 59.5q-72 -38 -148.5 -66t-151.5 -45q-5 11 -14 27.5t-17 26.5
q68 13 138.5 36t136.5 55q-32 21 -61 45t-53 50q-48 -45 -97 -76q-8 8 -21.5 20.5t-24.5 20.5q64 38 123.5 93.5t97.5 117.5l56 -18q-10 -16 -20.5 -30.5t-21.5 -29.5h264l11 3zM376 565q25 -29 58 -54.5t72 -48.5q43 25 79.5 52.5t64.5 59.5h-266zM407 322
q30 -6 62.5 -14.5t63.5 -18.5t59 -20.5t49 -19.5l-28 -47q-21 10 -49 21.5t-59 22t-63.5 20t-62.5 15.5zM310 201q50 -6 105.5 -15.5t109.5 -21t102.5 -24.5t84.5 -25l-31 -50q-35 13 -83 26.5t-102 25.5t-110 21.5t-108 15.5z"     />

    
    <glyph glyph-name="uni571F" unicode="&#x571F;" d="M946 34v-65h-890v65h408v413h-344v66h344v318h69v-318h350v-66h-350v-413h413z"     />

    
    <glyph glyph-name="cid13697" unicode="&#x5723;" d="M534 22h406v-64h-879v64h405v176h-296v62h296v125h68v-125h292v-62h-292v-176zM843 747q-46 -78 -114.5 -137t-153.5 -103q86 -34 182.5 -57t201.5 -35q-10 -11 -21 -29t-18 -32q-116 15 -222 44t-200 72q-99 -42 -208 -68.5t-222 -40.5q-4 13 -12.5 30.5t-16.5 28.5
q100 12 198 33t188 55q-70 39 -128 88t-102 109l11 6h-105v62h684l13 3zM270 711q42 -51 100 -94t130 -78q72 33 132 75.5t103 96.5h-465z"     />

    
    <glyph glyph-name="cid13713" unicode="&#x5730;" d="M823 8q22 0 35.5 6t22 22t12 44.5t6.5 72.5q12 -9 29 -16.5t31 -10.5q-4 -51 -11 -85t-21.5 -54.5t-39 -29.5t-62.5 -9h-252q-42 0 -69 5.5t-43.5 19.5t-23 39t-6.5 63v326l-84 -36l-26 58l110 46v275h63v-248l144 61v279h63v-253l142 60l15 13l12 11l47 -19l-3 -13
q0 -70 -0.5 -132.5t-2 -112.5t-3.5 -84.5t-5 -48.5q-5 -30 -18.5 -44t-35.5 -19q-20 -5 -46 -5.5t-46 -0.5q-2 14 -6 30.5t-10 27.5q19 -2 40.5 -2h29.5q11 0 19 5.5t12 22.5q5 20 6.5 102t1.5 204l-149 -63v-370h-63v344l-144 -61v-353q0 -20 3 -33t12 -20.5t24.5 -10.5
t40.5 -3h249zM239 232q29 13 58 25.5t59 24.5l14 -59q-81 -37 -160.5 -72.5t-145.5 -64.5l-26 66q29 10 64 24t74 31v325h-130v63h130v229h63v-229h120v-63h-120v-300z"     />

    
    <glyph glyph-name="cid13717" unicode="&#x5733;" d="M911 811v-873h-67v873h67zM647 759h64v-707h-64v707zM448 807h65v-338q0 -71 -4 -141.5t-17.5 -137.5t-39.5 -130.5t-71 -120.5q-9 9 -27 20.5t-31 17.5q42 54 67 112.5t38 120.5t16.5 127.5t3.5 131.5v338zM381 186q-83 -34 -166.5 -67.5t-152.5 -59.5l-22 68
q29 10 65.5 23t77.5 27v350h-127v65h127v232h66v-232h126v-65h-126v-326l121 45z"     />

    
    <glyph glyph-name="cid13751" unicode="&#x574A;" d="M606 457v-25h294q-1 -7 -1 -13v-19q-5 -111 -10 -188t-11.5 -127.5t-14.5 -79t-19 -41.5q-14 -17 -29.5 -23t-40.5 -8q-22 -2 -59.5 -1.5t-79.5 3.5q-2 14 -7 32t-14 32q45 -3 82 -4t52 -1q14 0 22.5 2t16.5 10t14.5 31t12 66t10 108.5t8.5 158.5h-229
q-5 -56 -18.5 -114.5t-42 -116t-75 -112t-116.5 -103.5q-9 11 -23 23.5t-28 21.5q81 55 128.5 117.5t72.5 127t32 127t7 117.5v137h-169v64h584v-64h-349v-138zM398 204q-91 -35 -180 -69.5t-160 -62.5l-18 69q30 11 67.5 23.5t79.5 27.5v328h-130v63h130v240h65v-240h123
v-63h-123v-305q33 12 66.5 24.5t66.5 24.5zM659 673q-7 29 -20.5 72t-27.5 80l62 13q7 -18 14.5 -38t14 -39.5l12.5 -37.5t9 -32z"     />

    
    <glyph glyph-name="cid13778" unicode="&#x575D;" d="M708 159q32 -23 65 -47.5t64.5 -49t59 -47.5t49.5 -43l-42 -44q-21 20 -48.5 44t-58.5 49t-63.5 50t-64.5 48zM690 647q-1 -110 -3.5 -199.5t-13 -162t-30.5 -128.5t-56 -99.5t-90 -75.5t-132 -55q-4 12 -15.5 28t-21.5 25q73 21 123.5 49.5t83.5 67.5t51.5 90.5
t27.5 118.5t11 151.5t3 189.5h62zM381 235q-83 -38 -165.5 -74.5t-150.5 -65.5l-25 64q30 11 67 25.5t79 31.5v316h-130v63h130v229h63v-229h121v-63h-121v-289l118 50zM491 165h-64v625h462v-625h-66v565h-332v-565z"     />

    
    <glyph glyph-name="cid13885" unicode="&#x57A3;" d="M953 36v-62h-595v62h595zM374 183q-81 -33 -163 -65t-149 -58l-22 67q29 10 63.5 22t73.5 26v354h-128v63h128v232h64v-232h122v-63h-122v-331q30 11 60.5 22.5t61.5 22.5zM436 143v462h442v-462h-442zM500 403h312v143h-312v-143zM500 202h312v145h-312v-145zM917 717
h-517v61h517v-61z"     />

    
    <glyph glyph-name="cid13890" unicode="&#x57A6;" d="M528 22h405v-56h-870v56h399v120h-306v55h306v106h66v-106h314v-55h-314v-120zM493 401q0 -11 1.5 -27.5t3.5 -24.5q-99 -21 -157.5 -33.5t-91.5 -20.5t-46.5 -13t-21.5 -9q-4 11 -13 27.5t-16 25.5q11 6 22 21.5t11 46.5v409h610v-295h-278q26 -32 62 -59t80 -50
q22 14 46.5 31t48.5 35t45.5 36t38.5 33l49 -39q-40 -32 -86.5 -63t-89.5 -56q51 -20 108 -34.5t119 -22.5q-11 -10 -21 -26t-16 -29q-74 12 -141 33.5t-125 52t-104.5 70t-79.5 88.5h-198v-153zM728 558v75h-475v-75h475zM253 752v-72h475v72h-475z"     />

    
    <glyph glyph-name="cid13945" unicode="&#x57CE;" d="M929 495q-26 -99 -60.5 -182.5t-80.5 -155.5q19 -76 42 -117.5t51 -41.5q15 0 23 39t11 128q10 -11 24 -20t26 -14q-4 -56 -10 -93.5t-16.5 -60.5t-26.5 -32.5t-39 -9.5q-43 0 -75.5 41t-55.5 116q-73 -96 -172 -163q-8 9 -22.5 24t-25.5 22q60 38 109.5 86t90.5 107
q-19 90 -31 204.5t-17 246.5h-242v-140h194v-11q0 -5 -0.5 -9.5t-0.5 -7.5q-3 -86 -5 -145.5t-4.5 -98t-6 -59.5t-10.5 -30q-10 -13 -21 -18.5t-29 -7.5q-14 -2 -39 -2t-52 2q-2 14 -5 30t-10 27q27 -2 49 -2.5t32 -0.5t15.5 1.5t9.5 8.5q4 6 7 22t5 47t3.5 79t2.5 118h-135
v-48q0 -53 -4 -112.5t-17 -119.5t-37.5 -117t-64.5 -103q-8 9 -23 22t-26 20q37 43 59 94.5t33.5 105.5t14.5 108t3 102v306h302q-3 76 -3 156h63v-79.5t1 -76.5h216v-61h-214q9 -220 35 -374q31 58 55.5 123t41.5 137zM341 169q-72 -29 -143 -57t-130 -51l-22 66
q26 8 56 18.5t64 23.5v361h-108v62h108v232h62v-232h99v-62h-99v-339l101 38zM876 682q-9 12 -22.5 26.5t-30 30t-34 31t-33.5 28.5l44 29q17 -12 34.5 -26t34 -29t31 -29.5t23.5 -26.5z"     />

    
    <glyph glyph-name="cid13975" unicode="&#x57E0;" d="M956 111h-285v-187h-67v187h-282v59h282v92h-200v487h160q12 22 23 46.5t18 44.5l72 -13l-22 -40t-22 -38h235v-210h-399v-62h426v-215h-224v-92h285v-59zM469 696v-104h335v104h-335zM469 316h361v108h-361v-108zM366 223q-80 -35 -159.5 -69t-144.5 -62l-20 65
q28 11 62.5 24.5t72.5 29.5v324h-123v63h123v234h63v-234h112v-63h-112v-298l111 47z"     />

    
    <glyph glyph-name="cid14022" unicode="&#x57F9;" d="M955 441v-60h-614v60h374q10 22 20.5 49.5t20.5 55.5t18.5 55.5t14.5 50.5l62 -17q-17 -48 -36.5 -99.5t-38.5 -94.5h179zM429 289h445v-361h-64v42h-319v-45h-62v364zM491 229v-199h319v199h-319zM230 196q29 11 59.5 22.5t60.5 23.5l12 -62q-79 -32 -158 -63.5
t-142 -57.5l-21 68q27 9 59.5 20.5t69.5 25.5v356h-122v63h122v232h60v-232h116v-63h-116v-333zM505 456q-3 18 -8.5 40t-13 45.5t-16.5 46.5t-18 44l53 16q10 -20 20 -43t17.5 -46t13 -44.5t8.5 -39.5zM925 661h-546v60h247q-5 25 -12.5 54.5t-15.5 55.5l59 9
q11 -29 20 -61.5t14 -57.5h234v-60z"     />

    
    <glyph glyph-name="cid14172" unicode="&#x5854;" d="M681 593q-5 -6 -9.5 -12t-9.5 -11q26 -23 62 -49.5t77 -52t84.5 -48.5t84.5 -39q-11 -9 -24 -24t-21 -27q-39 18 -80.5 42.5t-81.5 51.5t-75 54t-62 51q-59 -60 -133 -113t-159 -95q-8 11 -22.5 25.5t-24.5 23.5q51 24 100 52.5t92.5 60.5t79 65.5t61.5 67.5zM799 385
v-58h-318v58h318zM420 248h449v-325h-65v39h-321v-39h-63v325zM483 191v-172h321v172h-321zM339 235l13 -60q-75 -31 -150.5 -60.5t-138.5 -54.5l-22 67q28 9 61 20.5t71 25.5v356h-116v64h116v232h63v-232h102v-64h-102v-333zM472 672h-147v59h147v103h62v-103h208v103h62
v-103h148v-59h-148v-99h-62v99h-208v-99h-62v99z"     />

    
    <glyph glyph-name="cid14255" unicode="&#x5883;" d="M834 -10q11 0 21.5 1t15.5 3q13 3 18 22q2 11 3 33.5t2 53.5q10 -9 25 -17t29 -12q-2 -30 -4.5 -58t-7.5 -40q-9 -21 -36 -31q-11 -3 -28.5 -5t-32.5 -2h-67q-17 0 -36.5 3.5t-30.5 12.5q-13 8 -18.5 23.5t-5.5 54.5v152h-93q-6 -55 -20 -97t-42.5 -73.5t-73.5 -54
t-113 -38.5q-5 12 -15.5 28t-20.5 24q62 13 102.5 30.5t65.5 42.5t37 59t17 79h-107v281h450v-281h-125v-159q0 -26 10 -30q7 -5 29 -5h52zM479 349h325v69h-325v-69zM479 232h325v71h-325v-71zM351 174q-75 -30 -151 -60t-139 -54l-21 67q26 8 58.5 19.5t68.5 24.5v358
h-112v63h112v232h64v-232h99v-63h-99v-335l108 40zM922 521h-554v57h145q-5 20 -14 48.5t-20 53.5l55 11q11 -23 21.5 -51.5t15.5 -48.5l-46 -13h179q12 26 24 57t20 54l62 -15q-11 -25 -22.5 -50t-22.5 -46h157v-57zM896 703h-498v56h219q-6 17 -13.5 35t-15.5 35l62 11
q9 -18 18.5 -40t16.5 -41h211v-56z"     />

    
    <glyph glyph-name="cid14319" unicode="&#x58A8;" d="M951 -3v-56h-902v56h416v86h-310v54h310v64h66v-64h314v-54h-314v-86h420zM76 188q32 23 62.5 58.5t49.5 74.5l56 -16q-21 -40 -51.5 -81.5t-67.5 -69.5zM375 184q-4 23 -14.5 55t-22.5 59l55 12q14 -26 25 -57t15 -54zM616 183q-11 24 -31.5 56t-42.5 58l50 19
q23 -25 44.5 -55t33.5 -53zM791 325q18 -14 38 -30.5t39 -33t35.5 -33t27.5 -29.5l-53 -32q-11 14 -26.5 30.5t-34 34t-38 34.5t-38.5 32zM932 329h-864v49h398v70h-322v49h322v61h-312v243h694v-243h-318v-61h335v-49h-335v-70h402v-49zM782 755h-252v-151h252v151z
M466 604v151h-249v-151h249zM327 747q18 -28 34 -62t21 -58l-46 -20q-6 25 -21 60t-33 64zM606 624q7 13 15 29t15.5 32.5t14 33t11.5 29.5l52 -20q-17 -33 -33.5 -66t-31.5 -56z"     />

    
    <glyph glyph-name="cid14359" unicode="&#x58C1;" d="M951 13v-59h-902v59h418v122h-314v58h314v83h67v-83h321v-58h-321v-122h417zM148 450q-9 -46 -25.5 -89.5t-43.5 -81.5q-5 11 -19.5 25.5t-23.5 20.5q23 33 37 71t21 77t9 77.5t2 71.5v177h346v-213h-288q0 -17 -1.5 -35t-3.5 -38h303v-215h-313v152zM204 349h199v113
h-199v-113zM164 747v-109h226v109h-226zM679 532h-202v54h122q-5 23 -14.5 51.5t-20.5 53.5l53 13q13 -26 24 -57t15 -53l-25 -8h131q11 26 22.5 58.5t18.5 57.5l61 -11q-12 -27 -24 -54.5t-23 -50.5h132v-54h-208v-86h187v-54h-187v-118h-62v118h-185v54h185v86zM924 704
h-421v54h183q-5 17 -11.5 34t-13.5 32l60 14q11 -18 19.5 -39.5t13.5 -40.5h170v-54z"     />

    
    <glyph glyph-name="cid14474" unicode="&#x5907;" d="M801 725q-42 -62 -101.5 -113t-131.5 -93q88 -37 189.5 -62t209.5 -36q-11 -11 -22 -29t-18 -32q-116 16 -224.5 46t-202.5 75q-103 -50 -215 -83.5t-220 -52.5q-5 14 -13.5 33t-16.5 30q98 14 200 41.5t196 69.5q-86 50 -150 117q-64 -54 -153 -103q-8 12 -21 26t-25 22
q54 26 99 57t81.5 64.5t64 68t45.5 67.5l70 -15q-11 -18 -24 -36.5t-28 -37.5h356l12 4zM327 679q68 -75 173 -128q57 29 106 64t87 75h-354zM176 358h646v-431h-70v31h-508v-33h-68v433zM466 16v119h-222v-119h222zM752 16v119h-219v-119h219zM752 299h-219v-109h219v109z
M244 299v-109h222v109h-222z"     />

    
    <glyph glyph-name="cid14485" unicode="&#x590D;" d="M811 229q-39 -55 -96.5 -98.5t-128.5 -77.5q82 -26 176.5 -41t195.5 -22q-11 -11 -21 -28t-17 -31q-113 11 -217 32.5t-195 56.5q-103 -39 -217 -62t-227 -34q-3 14 -10.5 31t-14.5 29q100 8 200 25t192 46q-48 24 -88.5 53.5t-72.5 64.5q-30 -27 -61.5 -50t-63.5 -43
q-7 8 -21.5 22t-25.5 22q66 35 127.5 86.5t104.5 110.5h-112v289h607v-289h-423q-11 -17 -24 -34t-27 -33h407l12 4zM284 490h473v71h-473v-71zM284 371h473v72h-473v-72zM313 202q36 -37 84.5 -67t107.5 -54q62 25 112.5 54.5t88.5 66.5h-393zM246 681q-35 -44 -74 -82
t-77 -68q-6 9 -19 26.5t-23 26.5q32 22 64 50.5t60.5 61t53 68t42.5 72.5l60 -19q-11 -20 -21.5 -40t-24.5 -40h610v-56h-651z"     />

    
    <glyph glyph-name="cid14489" unicode="&#x590F;" d="M795 226q-38 -54 -92.5 -96t-121.5 -75q82 -29 179 -46t204 -25q-10 -11 -20.5 -28.5t-17.5 -31.5q-120 11 -226 35t-195 63q-101 -39 -214 -62.5t-224 -34.5q-4 12 -10.5 28t-14.5 27q99 8 200.5 27t193.5 50q-89 50 -149 120q-83 -53 -196 -95q-6 11 -18 25t-22 21
q106 35 183 82t123 96h-180v366h263q5 15 9 30.5t8 30.5h-378v56h843v-56h-393q-5 -17 -10.5 -32t-11.5 -29h317v-366h-388q-11 -14 -24.5 -27.5t-28.5 -27.5h358l13 3zM242 566h515v62h-515v-62zM242 458h515v64h-515v-64zM242 350h515v64h-515v-64zM344 200
q31 -35 72.5 -64t92.5 -52q55 23 101.5 52t81.5 64h-348z"     />

    
    <glyph glyph-name="cid14506" unicode="&#x5916;" d="M707 534q33 -25 69 -54.5t70 -59.5t63.5 -58.5t49.5 -52.5l-53 -46q-18 21 -43.5 47.5t-55.5 54.5t-62 56t-63 53v-549h-68v910h68v-321zM475 685l45 -15q-20 -146 -59 -263.5t-93.5 -208t-122.5 -156.5t-147 -110q-8 13 -25 29.5t-29 24.5q88 46 160.5 117t127.5 171
q-16 15 -36.5 32t-42.5 34.5t-45 33.5t-44 30l40 44q38 -24 81 -54.5t75 -59.5q27 61 48 132t34 153h-197q-29 -80 -65.5 -148t-79.5 -121q-8 9 -26 22t-29 21q34 39 63.5 88.5t53.5 106.5t43 119.5t33 128.5l65 -12q-8 -37 -17 -72t-20 -70h195z"     />

    
    <glyph glyph-name="cid14516" unicode="&#x591A;" d="M939 376q-52 -110 -139.5 -188.5t-197.5 -132t-236.5 -85t-256.5 -46.5q-3 13 -11 32t-16 31q129 13 253 42t231 80q-25 26 -58 54t-64 51l55 31q31 -22 66 -50.5t61 -54.5q68 39 123 88.5t93 111.5h-280q-63 -53 -141 -99t-174 -84q-6 11 -18.5 26t-23.5 24
q76 27 140.5 61t117 71.5t92.5 76.5t67 76l74 -16q-15 -19 -31.5 -38t-36.5 -38h254l13 4zM789 723q-48 -82 -123.5 -148.5t-166 -117.5t-190 -86.5t-194.5 -55.5q-5 13 -14 30.5t-18 28.5q85 15 172.5 43.5t169.5 69.5q-26 23 -58.5 46.5t-63.5 41.5l48 35
q33 -19 69.5 -43.5t62.5 -47.5q62 35 114.5 77.5t90.5 91.5h-287q-51 -42 -109.5 -79.5t-128.5 -69.5q-7 12 -21 25.5t-25 21.5q60 25 112 56t95.5 64t77.5 66.5t58 64.5l73 -15q-15 -19 -31.5 -37t-35.5 -37h268l12 3z"     />

    
    <glyph glyph-name="uni5927" unicode="&#x5927;" d="M557 479q27 -84 65 -160t87.5 -139.5t110.5 -112.5t133 -79q-12 -11 -26 -29t-23 -33q-73 34 -134.5 85.5t-111.5 116.5t-89 143t-68 166q-18 -74 -48 -147.5t-78 -140t-116 -124t-161 -100.5q-8 14 -22.5 29t-27.5 26q94 41 161.5 97t113.5 121.5t74 137t43 143.5h-374
v68h386q12 81 13.5 154.5t2.5 132.5h70q-1 -60 -3.5 -133t-13.5 -154h417v-68h-381z"     />

    
    <glyph glyph-name="cid14548" unicode="&#x5929;" d="M550 383q52 -146 154.5 -249.5t256.5 -148.5q-12 -11 -24.5 -28t-20.5 -31q-152 51 -253.5 155t-161.5 255q-16 -56 -45.5 -111.5t-78.5 -108.5t-119 -101.5t-167 -89.5q-8 13 -20.5 29t-23.5 27q98 41 167 88.5t115 99.5t72.5 106t39.5 108h-371v67h383q5 31 6 60.5
t1 58.5v120h-356v67h788v-67h-363v-121q0 -29 -1 -58t-5 -60h412v-67h-385z"     />

    
    <glyph glyph-name="cid14550" unicode="&#x592A;" d="M563 500q26 -89 64 -169t88 -147t113 -118t138 -83q-13 -11 -27.5 -29t-22.5 -32q-76 36 -139 90t-113.5 123t-90 151.5t-67.5 176.5q-16 -80 -45.5 -157.5t-80.5 -149.5l26 18q27 -21 56 -46.5t56 -51t50 -50t38 -44.5l-56 -45q-14 19 -35.5 43.5t-47 50t-53 51
t-53.5 48.5q-48 -62 -113.5 -114t-155.5 -92q-8 12 -21.5 28t-27.5 27q100 42 170 100t116.5 126.5t73 144t40.5 150.5h-378v68h388q9 74 10 141.5t2 124.5h71q-1 -58 -3 -125.5t-10 -140.5h416v-68h-376z"     />

    
    <glyph glyph-name="cid14551" unicode="&#x592B;" d="M541 333q53 -135 157 -222t265 -122q-12 -11 -24 -29t-20 -33q-156 40 -259.5 127t-163.5 222q-18 -52 -49 -101.5t-80 -94.5t-118.5 -84.5t-163.5 -72.5q-6 13 -18 30.5t-23 28.5q96 33 164 72.5t114.5 84.5t74 94t41.5 100h-368v68h383q5 32 6.5 64t1.5 64v84h-323v68
h323v155h70v-155h344v-68h-344v-84q0 -32 -1.5 -64t-5.5 -64h408v-68h-391z"     />

    
    <glyph glyph-name="cid14555" unicode="&#x592E;" d="M563 301q51 -125 151 -204.5t252 -112.5q-11 -11 -22.5 -28t-19.5 -31q-160 41 -263 131.5t-160 234.5q-16 -55 -46 -107t-79.5 -99t-120.5 -88.5t-170 -74.5q-5 12 -16 29t-21 28q90 30 155.5 66.5t111 77.5t74 86t44.5 92h-377v65h111v329h295v141h67v-141h313v-329
h103v-65h-382zM529 631v-113q0 -38 -2 -76t-9 -76h255v265h-244zM450 366q7 38 9.5 76t2.5 76v113h-229v-265h217z"     />

    
    <glyph glyph-name="cid14562" unicode="&#x5934;" d="M942 378v-63h-384q-20 -69 -54 -128t-88.5 -107.5t-131.5 -86.5t-183 -65q-5 13 -16.5 29t-22.5 27q97 23 168 55.5t122 74t83.5 92t52.5 109.5h-427v63h444q20 94 23 204.5t4 241.5h68q-1 -128 -4 -238.5t-23 -207.5h369zM571 219q52 -25 104 -53.5t100 -58.5t89 -60
t73 -58l-45 -50q-30 28 -70.5 58.5t-86.5 61t-97 59.5t-102 55zM333 434q-18 15 -44 32t-56 34t-62 32.5t-62 27.5l41 46q29 -11 61 -25.5t62.5 -30.5t57 -33t45.5 -32zM424 618q-18 15 -44.5 31.5t-56.5 33t-62.5 31t-62.5 26.5l37 48q30 -11 62 -25t62.5 -29.5t57.5 -31
t45 -30.5z"     />

    
    </font>
</defs>
</svg>
